DauphineRegular.ufo
<glyph name="exclam" format="1">
  <advance width="170"/>
  <unicode hex="0021"/>
  <outline>
    <contour>
      <point x="130" y="150" type="line"/>
      <point x="60" y="150" type="line"/>
      <point x="60" y="705" type="line"/>
      <point x="130" y="705" type="line"/>
    </contour>
    <contour>
      <point x="134" y="0" type="line"/>
      <point x="56" y="0" type="line"/>
      <point x="56" y="78" type="line"/>
      <point x="134" y="78" type="line"/>
    </contour>
  </outline>
</glyph>
<glyph name="numbersign" format="1">
  <advance width="580"/>
  <unicode hex="0023"/>
  <outline>
    <contour>
      <point x="530" y="451" type="line"/>
      <point x="90" y="451" type="line"/>
      <point x="90" y="514" type="line"/>
      <point x="530" y="514" type="line"/>
    </contour>
    <contour>
      <point x="490" y="191" type="line"/>
      <point x="50" y="191" type="line"/>
      <point x="50" y="254" type="line"/>
      <point x="490" y="254" type="line"/>
    </contour>
    <contour>
      <point x="135" y="0" type="line"/>
      <point x="70" y="0" type="line"/>
      <point x="260" y="705" type="line"/>
      <point x="325" y="705" type="line"/>
    </contour>
    <contour>
      <point x="320" y="0" type="line"/>
      <point x="255" y="0" type="line"/>
      <point x="445" y="705" type="line"/>
      <point x="510" y="705" type="line"/>
    </contour>
  </outline>
</glyph>
<glyph name="dollar" format="1">
  <advance width="567"/>
  <unicode hex="0024"/>
  <outline>
    <contour>
      <point x="315" y="677" type="line"/>
      <point x="249" y="677" type="line"/>
      <point x="249" y="805" type="line"/>
      <point x="315" y="805" type="line"/>
    </contour>
    <contour>
      <point x="315" y="-100" type="line"/>
      <point x="249" y="-100" type="line"/>
      <point x="249" y="28" type="line"/>
      <point x="315" y="28" type="line"/>
    </contour>
    <component base="S"/>
  </outline>
</glyph>
<glyph name="percent" format="1">
  <advance width="570"/>
  <unicode hex="0025"/>
  <outline>
    <component base="degree" xOffset="235" yOffset="-490"/>
    <component base="degree"/>
    <contour>
      <point x="449" y="705" type="line"/>
      <point x="518" y="705" type="line"/>
      <point x="122" y="0" type="line"/>
      <point x="53" y="0" type="line"/>
    </contour>
  </outline>
</glyph>
<glyph name="ampersand" format="1">
  <advance width="562"/>
  <unicode hex="0026"/>
  <outline>
    <contour>
      <point x="542" y="-10" type="line"/>
      <point x="466" y="-10" type="line"/>
      <point x="132" y="472" type="line" smooth="yes"/>
      <point x="117" y="494"/>
      <point x="110" y="526"/>
      <point x="110" y="554" type="curve" smooth="yes"/>
      <point x="110" y="642"/>
      <point x="180" y="715"/>
      <point x="270" y="715" type="curve" smooth="yes"/>
      <point x="359" y="715"/>
      <point x="431" y="642"/>
      <point x="431" y="554" type="curve" smooth="yes"/>
      <point x="431" y="464"/>
      <point x="359" y="395"/>
      <point x="270" y="395" type="curve" smooth="yes"/>
      <point x="180" y="395"/>
      <point x="110" y="321"/>
      <point x="110" y="231" type="curve" smooth="yes"/>
      <point x="110" y="141"/>
      <point x="180" y="55"/>
      <point x="270" y="55" type="curve" smooth="yes"/>
      <point x="370" y="55"/>
      <point x="441" y="131"/>
      <point x="441" y="231" type="curve" smooth="yes"/>
      <point x="441" y="317" type="line"/>
      <point x="511" y="317" type="line"/>
      <point x="511" y="232" type="line" smooth="yes"/>
      <point x="511" y="99"/>
      <point x="403" y="-10"/>
      <point x="270" y="-10" type="curve" smooth="yes"/>
      <point x="135" y="-10"/>
      <point x="40" y="96"/>
      <point x="40" y="231" type="curve" smooth="yes"/>
      <point x="40" y="361"/>
      <point x="140" y="460"/>
      <point x="270" y="460" type="curve" smooth="yes"/>
      <point x="325" y="460"/>
      <point x="361" y="499"/>
      <point x="361" y="554" type="curve" smooth="yes"/>
      <point x="361" y="609"/>
      <point x="325" y="650"/>
      <point x="270" y="650" type="curve" smooth="yes"/>
      <point x="215" y="650"/>
      <point x="180" y="609"/>
      <point x="180" y="554" type="curve" smooth="yes"/>
      <point x="180" y="531"/>
      <point x="194" y="509"/>
      <point x="200" y="499" type="curve" smooth="yes"/>
    </contour>
  </outline>
</glyph>
<glyph name="parenleft" format="1">
  <advance width="400"/>
  <unicode hex="0028"/>
  <outline>
    <contour>
      <point x="143" y="330" type="curve" smooth="yes"/>
      <point x="143" y="153"/>
      <point x="241" y="7"/>
      <point x="360" y="-43" type="curve"/>
      <point x="360" y="-118" type="line"/>
      <point x="190" y="-58"/>
      <point x="70" y="120"/>
      <point x="70" y="330" type="curve" smooth="yes"/>
      <point x="70" y="540"/>
      <point x="190" y="718"/>
      <point x="360" y="778" type="curve"/>
      <point x="360" y="703" type="line"/>
      <point x="241" y="653"/>
      <point x="143" y="507"/>
    </contour>
  </outline>
</glyph>
<glyph name="asterisk" format="1">
  <advance width="552"/>
  <unicode hex="002A"/>
  <outline>
    <contour>
      <point x="306" y="273" type="line"/>
      <point x="246" y="273" type="line"/>
      <point x="251" y="466" type="line"/>
      <point x="251" y="514" type="line"/>
      <point x="246" y="705" type="line"/>
      <point x="306" y="705" type="line"/>
      <point x="301" y="513" type="line"/>
      <point x="301" y="466" type="line"/>
    </contour>
    <contour>
      <point x="492" y="461" type="line"/>
      <point x="299" y="466" type="line"/>
      <point x="255" y="466" type="line"/>
      <point x="60" y="461" type="line"/>
      <point x="60" y="517" type="line"/>
      <point x="256" y="512" type="line"/>
      <point x="297" y="512" type="line"/>
      <point x="492" y="517" type="line"/>
    </contour>
    <contour>
      <point x="450" y="357" type="line"/>
      <point x="408" y="315" type="line"/>
      <point x="275" y="455" type="line"/>
      <point x="241" y="489" type="line"/>
      <point x="102" y="621" type="line"/>
      <point x="144" y="663" type="line"/>
      <point x="277" y="524" type="line"/>
      <point x="310" y="490" type="line"/>
    </contour>
    <contour>
      <point x="449" y="622" type="line"/>
      <point x="309" y="489" type="line"/>
      <point x="277" y="458" type="line"/>
      <point x="143" y="316" type="line"/>
      <point x="103" y="356" type="line"/>
      <point x="246" y="491" type="line"/>
      <point x="275" y="520" type="line"/>
      <point x="409" y="662" type="line"/>
    </contour>
  </outline>
</glyph>
<glyph name="comma" format="1">
  <advance width="193"/>
  <unicode hex="002C"/>
  <outline>
    <contour>
      <point x="80" y="-151" type="line"/>
      <point x="10" y="-151" type="line"/>
      <point x="83" y="70" type="line"/>
      <point x="153" y="70" type="line"/>
    </contour>
  </outline>
</glyph>
<glyph name="slash" format="1">
  <advance width="390"/>
  <unicode hex="002F"/>
  <outline>
    <contour>
      <point x="120" y="0" type="line"/>
      <point x="50" y="0" type="line"/>
      <point x="290" y="705" type="line"/>
      <point x="360" y="705" type="line"/>
    </contour>
  </outline>
</glyph>
<glyph name="two" format="1">
  <advance width="514"/>
  <unicode hex="0032"/>
  <outline>
    <contour>
      <point x="130" y="501" type="line"/>
      <point x="130" y="521" type="line" smooth="yes"/>
      <point x="130" y="591"/>
      <point x="184" y="650"/>
      <point x="254" y="650" type="curve" smooth="yes"/>
      <point x="324" y="650"/>
      <point x="378" y="591"/>
      <point x="378" y="521" type="curve" smooth="yes"/>
      <point x="378" y="495"/>
      <point x="372" y="471"/>
      <point x="357" y="452" type="curve" smooth="yes"/>
      <point x="60" y="70" type="line"/>
      <point x="60" y="0" type="line"/>
      <point x="454" y="0" type="line"/>
      <point x="454" y="70" type="line"/>
      <point x="130" y="70" type="line"/>
      <point x="130" y="51" type="line"/>
      <point x="409" y="402" type="line" smooth="yes"/>
      <point x="434" y="434"/>
      <point x="452" y="475"/>
      <point x="452" y="519" type="curve" smooth="yes"/>
      <point x="452" y="629"/>
      <point x="364" y="715"/>
      <point x="254" y="715" type="curve" smooth="yes"/>
      <point x="144" y="715"/>
      <point x="60" y="629"/>
      <point x="60" y="519" type="curve" smooth="yes"/>
      <point x="60" y="501" type="line"/>
    </contour>
  </outline>
</glyph>
<glyph name="six" format="1">
  <advance width="529"/>
  <unicode hex="0036"/>
  <outline>
    <contour>
      <point x="135" y="232" type="curve" smooth="yes"/>
      <point x="135" y="312"/>
      <point x="179" y="392"/>
      <point x="269" y="392" type="curve" smooth="yes"/>
      <point x="350" y="392"/>
      <point x="399" y="313"/>
      <point x="399" y="222" type="curve" smooth="yes"/>
      <point x="399" y="133"/>
      <point x="350" y="55"/>
      <point x="269" y="55" type="curve" smooth="yes"/>
      <point x="188" y="55"/>
      <point x="135" y="143"/>
    </contour>
    <contour>
      <point x="60" y="296" type="curve" smooth="yes"/>
      <point x="60" y="106"/>
      <point x="149" y="-10"/>
      <point x="269" y="-10" type="curve" smooth="yes"/>
      <point x="389" y="-10"/>
      <point x="474" y="92"/>
      <point x="474" y="222" type="curve" smooth="yes"/>
      <point x="474" y="353"/>
      <point x="389" y="457"/>
      <point x="269" y="457" type="curve" smooth="yes"/>
      <point x="179" y="457"/>
      <point x="119" y="390"/>
      <point x="100" y="277" type="curve"/>
      <point x="135" y="352" type="line"/>
      <point x="135" y="514"/>
      <point x="189" y="650"/>
      <point x="279" y="650" type="curve" smooth="yes"/>
      <point x="340" y="650"/>
      <point x="382" y="602"/>
      <point x="399" y="543" type="curve"/>
      <point x="469" y="543" type="line"/>
      <point x="448" y="642"/>
      <point x="384" y="715"/>
      <point x="279" y="715" type="curve" smooth="yes"/>
      <point x="139" y="715"/>
      <point x="60" y="536"/>
    </contour>
  </outline>
</glyph>
<glyph name="seven" format="1">
  <advance width="440"/>
  <unicode hex="0037"/>
  <outline>
    <contour>
      <point x="60" y="0" type="line"/>
      <point x="339" y="655" type="line"/>
      <point x="380" y="640" type="line"/>
      <point x="60" y="640" type="line"/>
      <point x="60" y="705" type="line"/>
      <point x="410" y="705" type="line"/>
      <point x="410" y="635" type="line"/>
      <point x="138" y="0" type="line"/>
    </contour>
  </outline>
</glyph>
<glyph name="eight" format="1">
  <advance width="488"/>
  <unicode hex="0038"/>
  <outline>
    <contour>
      <point x="64" y="526" type="curve" smooth="yes"/>
      <point x="64" y="426"/>
      <point x="153" y="347"/>
      <point x="244" y="347" type="curve" smooth="yes"/>
      <point x="335" y="347"/>
      <point x="424" y="426"/>
      <point x="424" y="526" type="curve" smooth="yes"/>
      <point x="424" y="631"/>
      <point x="349" y="715"/>
      <point x="244" y="715" type="curve" smooth="yes"/>
      <point x="139" y="715"/>
      <point x="64" y="631"/>
    </contour>
    <contour>
      <point x="138" y="526" type="curve" smooth="yes"/>
      <point x="138" y="596"/>
      <point x="174" y="650"/>
      <point x="244" y="650" type="curve" smooth="yes"/>
      <point x="314" y="650"/>
      <point x="350" y="596"/>
      <point x="350" y="526" type="curve" smooth="yes"/>
      <point x="350" y="456"/>
      <point x="304" y="409"/>
      <point x="244" y="409" type="curve" smooth="yes"/>
      <point x="184" y="409"/>
      <point x="138" y="456"/>
    </contour>
    <contour>
      <point x="40" y="204" type="curve" smooth="yes"/>
      <point x="40" y="84"/>
      <point x="124" y="-10"/>
      <point x="244" y="-10" type="curve" smooth="yes"/>
      <point x="364" y="-10"/>
      <point x="448" y="84"/>
      <point x="448" y="204" type="curve" smooth="yes"/>
      <point x="448" y="324"/>
      <point x="364" y="403"/>
      <point x="244" y="403" type="curve" smooth="yes"/>
      <point x="124" y="403"/>
      <point x="40" y="324"/>
    </contour>
    <contour>
      <point x="115" y="208" type="curve" smooth="yes"/>
      <point x="115" y="283"/>
      <point x="169" y="344"/>
      <point x="244" y="344" type="curve" smooth="yes"/>
      <point x="319" y="344"/>
      <point x="373" y="283"/>
      <point x="373" y="208" type="curve" smooth="yes"/>
      <point x="373" y="128"/>
      <point x="324" y="55"/>
      <point x="244" y="55" type="curve" smooth="yes"/>
      <point x="164" y="55"/>
      <point x="115" y="128"/>
    </contour>
  </outline>
</glyph>
<glyph name="B" format="1">
  <advance width="537"/>
  <unicode hex="0042"/>
  <outline>
    <contour>
      <point x="65" y="705" type="line"/>
      <point x="291" y="705" type="line" smooth="yes"/>
      <point x="391" y="705"/>
      <point x="473" y="628"/>
      <point x="473" y="528" type="curve" smooth="yes"/>
      <point x="473" y="428"/>
      <point x="391" y="357"/>
      <point x="291" y="357" type="curve"/>
      <point x="291" y="417" type="line"/>
      <point x="411" y="417"/>
      <point x="507" y="331"/>
      <point x="507" y="211" type="curve" smooth="yes"/>
      <point x="507" y="91"/>
      <point x="411" y="0"/>
      <point x="291" y="0" type="curve" smooth="yes"/>
      <point x="65" y="0" type="line"/>
    </contour>
    <contour>
      <point x="135" y="681" type="line"/>
      <point x="135" y="38" type="line"/>
      <point x="97" y="65" type="line"/>
      <point x="291" y="65" type="line" smooth="yes"/>
      <point x="371" y="65"/>
      <point x="432" y="133"/>
      <point x="432" y="211" type="curve" smooth="yes"/>
      <point x="432" y="289"/>
      <point x="371" y="354"/>
      <point x="291" y="354" type="curve" smooth="yes"/>
      <point x="98" y="354" type="line"/>
      <point x="98" y="420" type="line"/>
      <point x="291" y="420" type="line" smooth="yes"/>
      <point x="351" y="420"/>
      <point x="398" y="468"/>
      <point x="398" y="528" type="curve" smooth="yes"/>
      <point x="398" y="588"/>
      <point x="350" y="640"/>
      <point x="291" y="640" type="curve" smooth="yes"/>
      <point x="97" y="640" type="line"/>
    </contour>
  </outline>
</glyph>
<glyph name="C" format="1">
  <advance width="610"/>
  <unicode hex="0043"/>
  <outline>
    <contour>
      <point x="316" y="55" type="curve" smooth="yes"/>
      <point x="408" y="55"/>
      <point x="464" y="131"/>
      <point x="492" y="210" type="curve"/>
      <point x="570" y="210" type="line"/>
      <point x="533" y="87"/>
      <point x="448" y="-10"/>
      <point x="316" y="-10" type="curve" smooth="yes"/>
      <point x="136" y="-10"/>
      <point x="40" y="172"/>
      <point x="40" y="352" type="curve" smooth="yes"/>
      <point x="40" y="532"/>
      <point x="136" y="715"/>
      <point x="316" y="715" type="curve" smooth="yes"/>
      <point x="448" y="715"/>
      <point x="533" y="618"/>
      <point x="570" y="495" type="curve"/>
      <point x="492" y="495" type="line"/>
      <point x="464" y="574"/>
      <point x="408" y="650"/>
      <point x="316" y="650" type="curve" smooth="yes"/>
      <point x="181" y="650"/>
      <point x="115" y="487"/>
      <point x="115" y="352" type="curve" smooth="yes"/>
      <point x="115" y="217"/>
      <point x="181" y="55"/>
    </contour>
  </outline>
</glyph>
<glyph name="E" format="1">
  <advance width="480"/>
  <unicode hex="0045"/>
  <outline>
    <contour>
      <point x="450" y="0" type="line"/>
      <point x="65" y="0" type="line"/>
      <point x="65" y="705" type="line"/>
      <point x="450" y="705" type="line"/>
      <point x="450" y="640" type="line"/>
      <point x="123" y="640" type="line"/>
      <point x="135" y="650" type="line"/>
      <point x="135" y="56" type="line"/>
      <point x="123" y="65" type="line"/>
      <point x="450" y="65" type="line"/>
    </contour>
    <contour>
      <point x="345" y="319" type="line"/>
      <point x="106" y="319" type="line"/>
      <point x="106" y="385" type="line"/>
      <point x="345" y="385" type="line"/>
    </contour>
  </outline>
</glyph>
<glyph name="F" format="1">
  <advance width="465"/>
  <unicode hex="0046"/>
  <outline>
    <component base="L" yScale="-1" yOffset="705"/>
    <contour>
      <point x="345" y="319" type="line"/>
      <point x="106" y="319" type="line"/>
      <point x="106" y="385" type="line"/>
      <point x="345" y="385" type="line"/>
    </contour>
  </outline>
</glyph>
<glyph name="H" format="1">
  <advance width="570"/>
  <unicode hex="0048"/>
  <outline>
    <contour>
      <point x="456" y="319" type="line"/>
      <point x="116" y="319" type="line"/>
      <point x="116" y="385" type="line"/>
      <point x="456" y="385" type="line"/>
    </contour>
    <contour>
      <point x="505" y="0" type="line"/>
      <point x="435" y="0" type="line"/>
      <point x="435" y="705" type="line"/>
      <point x="505" y="705" type="line"/>
    </contour>
    <contour>
      <point x="135" y="0" type="line"/>
      <point x="65" y="0" type="line"/>
      <point x="65" y="705" type="line"/>
      <point x="135" y="705" type="line"/>
    </contour>
  </outline>
</glyph>
<glyph name="I" format="1">
  <advance width="200"/>
  <unicode hex="0049"/>
  <outline>
    <contour>
      <point x="135" y="0" type="line"/>
      <point x="65" y="0" type="line"/>
      <point x="65" y="705" type="line"/>
      <point x="135" y="705" type="line"/>
    </contour>
  </outline>
</glyph>
<glyph name="L" format="1">
  <advance width="475"/>
  <unicode hex="004C"/>
  <outline>
    <contour>
      <point x="65" y="705" type="line"/>
      <point x="65" y="0" type="line"/>
      <point x="445" y="0" type="line"/>
      <point x="445" y="65" type="line"/>
      <point x="118" y="65" type="line"/>
      <point x="135" y="45" type="line"/>
      <point x="135" y="705" type="line"/>
    </contour>
  </outline>
</glyph>
<glyph name="O" format="1">
  <advance width="630"/>
  <unicode hex="004F"/>
  <outline>
    <contour>
      <point x="316" y="650" type="curve" smooth="yes"/>
      <point x="181" y="650"/>
      <point x="115" y="487"/>
      <point x="115" y="352" type="curve" smooth="yes"/>
      <point x="115" y="217"/>
      <point x="181" y="55"/>
      <point x="316" y="55" type="curve" smooth="yes"/>
      <point x="451" y="55"/>
      <point x="515" y="217"/>
      <point x="515" y="352" type="curve" smooth="yes"/>
      <point x="515" y="487"/>
      <point x="451" y="650"/>
    </contour>
    <contour>
      <point x="316" y="-10" type="curve" smooth="yes"/>
      <point x="136" y="-10"/>
      <point x="40" y="172"/>
      <point x="40" y="352" type="curve" smooth="yes"/>
      <point x="40" y="532"/>
      <point x="136" y="715"/>
      <point x="316" y="715" type="curve" smooth="yes"/>
      <point x="496" y="715"/>
      <point x="590" y="532"/>
      <point x="590" y="352" type="curve" smooth="yes"/>
      <point x="590" y="172"/>
      <point x="496" y="-10"/>
    </contour>
  </outline>
</glyph>
<glyph name="Q" format="1">
  <advance width="630"/>
  <unicode hex="0051"/>
  <outline>
    <component base="O"/>
    <contour>
      <point x="290" y="0" type="line"/>
      <point x="362" y="0" type="line"/>
      <point x="435" y="-221" type="line"/>
      <point x="363" y="-221" type="line"/>
    </contour>
  </outline>
</glyph>
<glyph name="S" format="1">
  <advance width="567"/>
  <unicode hex="0053"/>
  <outline>
    <contour>
      <point x="407" y="531" type="line"/>
      <point x="407" y="601"/>
      <point x="346" y="652"/>
      <point x="276" y="652" type="curve" smooth="yes"/>
      <point x="196" y="652"/>
      <point x="145" y="601"/>
      <point x="145" y="531" type="curve" smooth="yes"/>
      <point x="145" y="461"/>
      <point x="209" y="436"/>
      <point x="286" y="408" type="curve" smooth="yes"/>
      <point x="412" y="362"/>
      <point x="520" y="340"/>
      <point x="520" y="200" type="curve" smooth="yes"/>
      <point x="520" y="61"/>
      <point x="411" y="-10"/>
      <point x="286" y="-10" type="curve" smooth="yes"/>
      <point x="161" y="-10"/>
      <point x="50" y="61"/>
      <point x="50" y="200" type="curve"/>
      <point x="125" y="200" type="line"/>
      <point x="125" y="112"/>
      <point x="185" y="53"/>
      <point x="286" y="53" type="curve" smooth="yes"/>
      <point x="387" y="53"/>
      <point x="447" y="112"/>
      <point x="447" y="200" type="curve" smooth="yes"/>
      <point x="447" y="275"/>
      <point x="369" y="300"/>
      <point x="286" y="330" type="curve" smooth="yes"/>
      <point x="174" y="371"/>
      <point x="72" y="401"/>
      <point x="72" y="531" type="curve" smooth="yes"/>
      <point x="72" y="641"/>
      <point x="166" y="715"/>
      <point x="276" y="715" type="curve" smooth="yes"/>
      <point x="386" y="715"/>
      <point x="482" y="641"/>
      <point x="482" y="531" type="curve"/>
    </contour>
  </outline>
</glyph>
<glyph name="T" format="1">
  <advance width="520"/>
  <unicode hex="0054"/>
  <outline>
    <contour>
      <point x="505" y="640" type="line"/>
      <point x="15" y="640" type="line"/>
      <point x="15" y="705" type="line"/>
      <point x="505" y="705" type="line"/>
    </contour>
    <contour>
      <point x="295" y="0" type="line"/>
      <point x="225" y="0" type="line"/>
      <point x="225" y="695" type="line"/>
      <point x="295" y="695" type="line"/>
    </contour>
  </outline>
</glyph>
<glyph name="V" format="1">
  <advance width="606"/>
  <unicode hex="0056"/>
  <outline>
    <contour>
      <point x="315" y="48" type="line"/>
      <point x="102" y="705" type="line"/>
      <point x="30" y="705" type="line"/>
      <point x="263" y="0" type="line"/>
      <point x="343" y="0" type="line"/>
      <point x="576" y="705" type="line"/>
      <point x="504" y="705" type="line"/>
      <point x="291" y="48" type="line"/>
    </contour>
  </outline>
</glyph>
<glyph name="X" format="1">
  <advance width="618"/>
  <unicode hex="0058"/>
  <outline>
    <contour>
      <point x="30" y="0" type="line"/>
      <point x="274" y="404" type="line"/>
      <point x="304" y="432" type="line"/>
      <point x="467" y="705" type="line"/>
      <point x="549" y="705" type="line"/>
      <point x="344" y="364" type="line"/>
      <point x="315" y="337" type="line"/>
      <point x="112" y="0" type="line"/>
    </contour>
    <contour>
      <point x="506" y="0" type="line"/>
      <point x="69" y="705" type="line"/>
      <point x="151" y="705" type="line"/>
      <point x="588" y="0" type="line"/>
    </contour>
  </outline>
</glyph>
<glyph name="bracketleft" format="1">
  <advance width="280"/>
  <unicode hex="005B"/>
  <outline>
    <contour>
      <point x="130" y="-82" type="line"/>
      <point x="130" y="732" type="line"/>
      <point x="101" y="705" type="line"/>
      <point x="270" y="705" type="line"/>
      <point x="270" y="770" type="line"/>
      <point x="60" y="770" type="line"/>
      <point x="60" y="-120" type="line"/>
      <point x="270" y="-120" type="line"/>
      <point x="270" y="-55" type="line"/>
      <point x="101" y="-55" type="line"/>
    </contour>
  </outline>
</glyph>
<glyph name="grave" format="1">
  <advance width="229"/>
  <unicode hex="0060"/>
  <outline>
    <contour>
      <point x="115" y="484" type="line"/>
      <point x="177" y="484" type="line"/>
      <point x="104" y="705" type="line"/>
      <point x="42" y="705" type="line"/>
    </contour>
  </outline>
</glyph>
<glyph name="a" format="1">
  <advance width="414"/>
  <unicode hex="0061"/>
  <outline>
    <contour>
      <point x="205" y="419" type="curve" smooth="yes"/>
      <point x="295" y="419"/>
      <point x="355" y="363"/>
      <point x="355" y="273" type="curve" smooth="yes"/>
      <point x="355" y="105" type="line" smooth="yes"/>
      <point x="355" y="61"/>
      <point x="419" y="0"/>
      <point x="419" y="0" type="curve"/>
      <point x="339" y="0" type="line"/>
      <point x="325" y="11"/>
      <point x="310" y="28"/>
      <point x="302" y="55" type="curve"/>
      <point x="290" y="75" type="line"/>
      <point x="290" y="258" type="line" smooth="yes"/>
      <point x="290" y="323"/>
      <point x="265" y="361"/>
      <point x="200" y="361" type="curve" smooth="yes"/>
      <point x="155" y="361"/>
      <point x="120" y="330"/>
      <point x="120" y="290" type="curve"/>
      <point x="57" y="290" type="line"/>
      <point x="57" y="370"/>
      <point x="120" y="419"/>
    </contour>
    <contour>
      <point x="105" y="121" type="curve" smooth="yes"/>
      <point x="105" y="69"/>
      <point x="148" y="48"/>
      <point x="198" y="48" type="curve" smooth="yes"/>
      <point x="256" y="48"/>
      <point x="304" y="69"/>
      <point x="304" y="121" type="curve" smooth="yes"/>
      <point x="304" y="172"/>
      <point x="256" y="193"/>
      <point x="198" y="193" type="curve" smooth="yes"/>
      <point x="148" y="193"/>
      <point x="105" y="172"/>
    </contour>
    <contour>
      <point x="354" y="121" type="curve" smooth="yes"/>
      <point x="354" y="40"/>
      <point x="279" y="-10"/>
      <point x="198" y="-10" type="curve" smooth="yes"/>
      <point x="118" y="-10"/>
      <point x="40" y="36"/>
      <point x="40" y="121" type="curve" smooth="yes"/>
      <point x="40" y="206"/>
      <point x="118" y="251"/>
      <point x="198" y="251" type="curve" smooth="yes"/>
      <point x="279" y="251"/>
      <point x="354" y="202"/>
    </contour>
  </outline>
</glyph>
<glyph name="c" format="1">
  <advance width="420"/>
  <unicode hex="0063"/>
  <outline>
    <contour>
      <point x="385" y="130" type="line"/>
      <point x="362" y="51"/>
      <point x="303" y="-10"/>
      <point x="218" y="-10" type="curve" smooth="yes"/>
      <point x="108" y="-10"/>
      <point x="40" y="94"/>
      <point x="40" y="204" type="curve" smooth="yes"/>
      <point x="40" y="314"/>
      <point x="108" y="419"/>
      <point x="218" y="419" type="curve" smooth="yes"/>
      <point x="302" y="419"/>
      <point x="361" y="358"/>
      <point x="384" y="280" type="curve"/>
      <point x="314" y="280" type="line"/>
      <point x="297" y="325"/>
      <point x="264" y="357"/>
      <point x="218" y="357" type="curve" smooth="yes"/>
      <point x="148" y="357"/>
      <point x="108" y="284"/>
      <point x="108" y="204" type="curve" smooth="yes"/>
      <point x="108" y="124"/>
      <point x="148" y="52"/>
      <point x="218" y="52" type="curve" smooth="yes"/>
      <point x="265" y="52"/>
      <point x="299" y="84"/>
      <point x="315" y="130" type="curve"/>
    </contour>
  </outline>
</glyph>
<glyph name="e" format="1">
  <advance width="435"/>
  <unicode hex="0065"/>
  <outline>
    <contour>
      <point x="395" y="195" type="line"/>
      <point x="77" y="195" type="line"/>
      <point x="77" y="253" type="line"/>
      <point x="339" y="253" type="line"/>
      <point x="328" y="204" type="line"/>
      <point x="328" y="284"/>
      <point x="288" y="358"/>
      <point x="218" y="358" type="curve" smooth="yes"/>
      <point x="148" y="358"/>
      <point x="107" y="284"/>
      <point x="107" y="204" type="curve" smooth="yes"/>
      <point x="107" y="124"/>
      <point x="148" y="51"/>
      <point x="218" y="51" type="curve" smooth="yes"/>
      <point x="265" y="51"/>
      <point x="305" y="85"/>
      <point x="323" y="130" type="curve"/>
      <point x="391" y="130" type="line"/>
      <point x="368" y="51"/>
      <point x="303" y="-10"/>
      <point x="218" y="-10" type="curve" smooth="yes"/>
      <point x="108" y="-10"/>
      <point x="40" y="94"/>
      <point x="40" y="204" type="curve" smooth="yes"/>
      <point x="40" y="314"/>
      <point x="108" y="419"/>
      <point x="218" y="419" type="curve" smooth="yes"/>
      <point x="328" y="419"/>
      <point x="395" y="314"/>
      <point x="395" y="204" type="curve" smooth="yes"/>
    </contour>
  </outline>
</glyph>
<glyph name="f" format="1">
  <advance width="315"/>
  <unicode hex="0066"/>
  <outline>
    <contour>
      <point x="270" y="409" type="line"/>
      <point x="30" y="409" type="line"/>
      <point x="30" y="349" type="line"/>
      <point x="270" y="349" type="line"/>
    </contour>
    <contour>
      <point x="365" y="564" type="line"/>
      <point x="365" y="590" type="line" smooth="yes"/>
      <point x="365" y="665"/>
      <point x="315" y="715"/>
      <point x="240" y="715" type="curve" smooth="yes"/>
      <point x="160" y="715"/>
      <point x="115" y="660"/>
      <point x="115" y="580" type="curve" smooth="yes"/>
      <point x="115" y="0" type="line"/>
      <point x="180" y="0" type="line"/>
      <point x="180" y="585" type="line" smooth="yes"/>
      <point x="180" y="625"/>
      <point x="200" y="655"/>
      <point x="240" y="655" type="curve" smooth="yes"/>
      <point x="280" y="655"/>
      <point x="300" y="629"/>
      <point x="300" y="584" type="curve" smooth="yes"/>
      <point x="300" y="564" type="line"/>
    </contour>
  </outline>
</glyph>
<glyph name="g" format="1">
  <advance width="410"/>
  <unicode hex="0067"/>
  <outline>
    <component base="acute" xOffset="119" yOffset="-97"/>
    <contour>
      <point x="212" y="361" type="curve" smooth="yes"/>
      <point x="160" y="361"/>
      <point x="121" y="323"/>
      <point x="121" y="261" type="curve" smooth="yes"/>
      <point x="121" y="198"/>
      <point x="160" y="161"/>
      <point x="212" y="161" type="curve" smooth="yes"/>
      <point x="265" y="161"/>
      <point x="304" y="198"/>
      <point x="304" y="261" type="curve" smooth="yes"/>
      <point x="304" y="323"/>
      <point x="265" y="361"/>
    </contour>
    <contour>
      <point x="164" y="110" type="line"/>
      <point x="101" y="130"/>
      <point x="58" y="189"/>
      <point x="58" y="261" type="curve" smooth="yes"/>
      <point x="58" y="340"/>
      <point x="124" y="419"/>
      <point x="212" y="419" type="curve" smooth="yes"/>
      <point x="302" y="419"/>
      <point x="367" y="340"/>
      <point x="367" y="261" type="curve" smooth="yes"/>
      <point x="367" y="172"/>
      <point x="302" y="103"/>
      <point x="212" y="103" type="curve" smooth="yes"/>
      <point x="177" y="103"/>
      <point x="156" y="92"/>
      <point x="156" y="62" type="curve" smooth="yes"/>
      <point x="156" y="32"/>
      <point x="177" y="14"/>
      <point x="212" y="14" type="curve" smooth="yes"/>
      <point x="307" y="14"/>
      <point x="390" y="-51"/>
      <point x="390" y="-146" type="curve" smooth="yes"/>
      <point x="390" y="-241"/>
      <point x="307" y="-305"/>
      <point x="212" y="-305" type="curve" smooth="yes"/>
      <point x="117" y="-305"/>
      <point x="35" y="-241"/>
      <point x="35" y="-146" type="curve" smooth="yes"/>
      <point x="35" y="-66"/>
      <point x="93" y="-12"/>
      <point x="165" y="8" type="curve"/>
      <point x="166" y="-31" type="line"/>
      <point x="124" y="-16"/>
      <point x="85" y="7"/>
      <point x="85" y="57" type="curve" smooth="yes"/>
      <point x="85" y="117"/>
      <point x="141" y="148"/>
      <point x="202" y="148" type="curve"/>
    </contour>
    <contour>
      <point x="100" y="-146" type="curve" smooth="yes"/>
      <point x="100" y="-206"/>
      <point x="152" y="-242"/>
      <point x="212" y="-242" type="curve" smooth="yes"/>
      <point x="272" y="-242"/>
      <point x="325" y="-206"/>
      <point x="325" y="-146" type="curve" smooth="yes"/>
      <point x="325" y="-86"/>
      <point x="272" y="-46"/>
      <point x="212" y="-46" type="curve" smooth="yes"/>
      <point x="152" y="-46"/>
      <point x="100" y="-86"/>
    </contour>
  </outline>
</glyph>
<glyph name="h" format="1">
  <advance width="410"/>
  <unicode hex="0068"/>
  <outline>
    <component base="l" xOffset="-5"/>
    <contour>
      <point x="80" y="238" type="line"/>
      <point x="80" y="338"/>
      <point x="130" y="419"/>
      <point x="215" y="419" type="curve" smooth="yes"/>
      <point x="305" y="419"/>
      <point x="360" y="363"/>
      <point x="360" y="273" type="curve" smooth="yes"/>
      <point x="360" y="0" type="line"/>
      <point x="295" y="0" type="line"/>
      <point x="295" y="258" type="line" smooth="yes"/>
      <point x="295" y="318"/>
      <point x="270" y="359"/>
      <point x="210" y="359" type="curve" smooth="yes"/>
      <point x="150" y="359"/>
      <point x="115" y="298"/>
      <point x="115" y="238" type="curve"/>
    </contour>
  </outline>
</glyph>
<glyph name="i" format="1">
  <advance width="175"/>
  <unicode hex="0069"/>
  <outline>
    <contour>
      <point x="120" y="0" type="line"/>
      <point x="55" y="0" type="line"/>
      <point x="55" y="409" type="line"/>
      <point x="120" y="409" type="line"/>
    </contour>
    <contour>
      <point x="125" y="534" type="line"/>
      <point x="50" y="534" type="line"/>
      <point x="50" y="609" type="line"/>
      <point x="125" y="609" type="line"/>
    </contour>
  </outline>
</glyph>
<glyph name="j" format="1">
  <advance width="175"/>
  <unicode hex="006A"/>
  <outline>
    <contour>
      <point x="55" y="-175" type="line"/>
      <point x="55" y="-215"/>
      <point x="35" y="-245"/>
      <point x="-5" y="-245" type="curve" smooth="yes"/>
      <point x="-45" y="-245"/>
      <point x="-65" y="-219"/>
      <point x="-65" y="-174" type="curve" smooth="yes"/>
      <point x="-65" y="-154" type="line"/>
      <point x="-130" y="-154" type="line"/>
      <point x="-130" y="-180" type="line" smooth="yes"/>
      <point x="-130" y="-255"/>
      <point x="-80" y="-305"/>
      <point x="-5" y="-305" type="curve" smooth="yes"/>
      <point x="75" y="-305"/>
      <point x="120" y="-250"/>
      <point x="120" y="-170" type="curve" smooth="yes"/>
      <point x="120" y="409" type="line"/>
      <point x="55" y="409" type="line"/>
    </contour>
    <contour>
      <point x="125" y="534" type="line"/>
      <point x="50" y="534" type="line"/>
      <point x="50" y="609" type="line"/>
      <point x="125" y="609" type="line"/>
    </contour>
  </outline>
</glyph>
<glyph name="k" format="1">
  <advance width="397"/>
  <unicode hex="006B"/>
  <outline>
    <component base="l" xOffset="-5"/>
    <contour>
      <point x="89" y="228" type="line"/>
      <point x="281" y="409" type="line"/>
      <point x="372" y="409" type="line"/>
      <point x="133" y="182" type="line"/>
      <point x="128" y="244" type="line"/>
      <point x="387" y="0" type="line"/>
      <point x="290" y="0" type="line"/>
      <point x="89" y="190" type="line"/>
    </contour>
  </outline>
</glyph>
<glyph name="l" format="1">
  <advance width="175"/>
  <unicode hex="006C"/>
  <outline>
    <contour>
      <point x="120" y="0" type="line"/>
      <point x="55" y="0" type="line"/>
      <point x="55" y="705" type="line"/>
      <point x="120" y="705" type="line"/>
    </contour>
  </outline>
</glyph>
<glyph name="m" format="1">
  <advance width="665"/>
  <unicode hex="006D"/>
  <outline>
    <component base="n"/>
    <contour>
      <point x="325" y="238" type="line"/>
      <point x="325" y="328"/>
      <point x="380" y="419"/>
      <point x="470" y="419" type="curve" smooth="yes"/>
      <point x="560" y="419"/>
      <point x="615" y="363"/>
      <point x="615" y="273" type="curve" smooth="yes"/>
      <point x="615" y="0" type="line"/>
      <point x="550" y="0" type="line"/>
      <point x="550" y="258" type="line" smooth="yes"/>
      <point x="550" y="318"/>
      <point x="525" y="359"/>
      <point x="465" y="359" type="curve" smooth="yes"/>
      <point x="405" y="359"/>
      <point x="370" y="298"/>
      <point x="370" y="238" type="curve"/>
    </contour>
  </outline>
</glyph>
<glyph name="o" format="1">
  <advance width="435"/>
  <unicode hex="006F"/>
  <outline>
    <contour>
      <point x="218" y="357" type="curve" smooth="yes"/>
      <point x="288" y="357"/>
      <point x="327" y="284"/>
      <point x="327" y="204" type="curve" smooth="yes"/>
      <point x="327" y="124"/>
      <point x="288" y="52"/>
      <point x="218" y="52" type="curve" smooth="yes"/>
      <point x="148" y="52"/>
      <point x="108" y="124"/>
      <point x="108" y="204" type="curve" smooth="yes"/>
      <point x="108" y="284"/>
      <point x="148" y="357"/>
    </contour>
    <contour>
      <point x="218" y="-10" type="curve" smooth="yes"/>
      <point x="328" y="-10"/>
      <point x="395" y="94"/>
      <point x="395" y="204" type="curve" smooth="yes"/>
      <point x="395" y="314"/>
      <point x="328" y="419"/>
      <point x="218" y="419" type="curve" smooth="yes"/>
      <point x="108" y="419"/>
      <point x="40" y="314"/>
      <point x="40" y="204" type="curve" smooth="yes"/>
      <point x="40" y="94"/>
      <point x="108" y="-10"/>
    </contour>
  </outline>
</glyph>
<glyph name="p" format="1">
  <advance width="452"/>
  <unicode hex="0070"/>
  <outline>
    <contour>
      <point x="125" y="-295" type="line"/>
      <point x="60" y="-295" type="line"/>
      <point x="60" y="409" type="line"/>
      <point x="125" y="409" type="line"/>
    </contour>
    <component base="b.alt" xOffset="26"/>
  </outline>
</glyph>
<glyph name="q" format="1">
  <advance width="452"/>
  <unicode hex="0071"/>
  <outline>
    <component base="b.alt" xScale="-1" xOffset="426"/>
    <contour>
      <point x="392" y="409" type="line"/>
      <point x="327" y="409" type="line"/>
      <point x="327" y="-295" type="line"/>
      <point x="392" y="-295" type="line"/>
    </contour>
  </outline>
</glyph>
<glyph name="t" format="1">
  <advance width="370"/>
  <unicode hex="0074"/>
  <outline>
    <contour>
      <point x="275" y="349" type="line"/>
      <point x="30" y="349" type="line"/>
      <point x="30" y="409" type="line"/>
      <point x="275" y="409" type="line"/>
    </contour>
    <contour>
      <point x="175" y="132" type="line" smooth="yes"/>
      <point x="175" y="82"/>
      <point x="185" y="50"/>
      <point x="225" y="50" type="curve" smooth="yes"/>
      <point x="265" y="50"/>
      <point x="275" y="82"/>
      <point x="275" y="132" type="curve"/>
      <point x="340" y="132" type="line"/>
      <point x="340" y="116" type="line" smooth="yes"/>
      <point x="340" y="41"/>
      <point x="300" y="-10"/>
      <point x="225" y="-10" type="curve" smooth="yes"/>
      <point x="150" y="-10"/>
      <point x="110" y="41"/>
      <point x="110" y="116" type="curve" smooth="yes"/>
      <point x="110" y="604" type="line"/>
      <point x="175" y="604" type="line"/>
    </contour>
  </outline>
</glyph>
<glyph name="v" format="1">
  <advance width="386"/>
  <unicode hex="0076"/>
  <outline>
    <contour>
      <point x="177" y="40" type="line"/>
      <point x="209" y="40" type="line"/>
      <point x="91" y="409" type="line"/>
      <point x="20" y="409" type="line"/>
      <point x="160" y="0" type="line"/>
      <point x="226" y="0" type="line"/>
      <point x="366" y="409" type="line"/>
      <point x="295" y="409" type="line"/>
    </contour>
  </outline>
</glyph>
<glyph name="w" format="1">
  <advance width="661"/>
  <unicode hex="0077"/>
  <outline>
    <contour>
      <point x="326" y="321" type="line"/>
      <point x="435" y="0" type="line"/>
      <point x="501" y="0" type="line"/>
      <point x="641" y="409" type="line"/>
      <point x="570" y="409" type="line"/>
      <point x="452" y="40" type="line"/>
      <point x="484" y="40" type="line"/>
      <point x="364" y="409" type="line"/>
      <point x="297" y="409" type="line"/>
      <point x="177" y="40" type="line"/>
      <point x="209" y="40" type="line"/>
      <point x="91" y="409" type="line"/>
      <point x="20" y="409" type="line"/>
      <point x="160" y="0" type="line"/>
      <point x="226" y="0" type="line"/>
      <point x="335" y="321" type="line"/>
    </contour>
  </outline>
</glyph>
<glyph name="y" format="1">
  <advance width="370"/>
  <unicode hex="0079"/>
  <outline>
    <contour>
      <point x="220" y="30" type="line"/>
      <point x="155" y="30" type="line"/>
      <point x="155" y="-144" type="line" smooth="yes"/>
      <point x="155" y="-194"/>
      <point x="145" y="-243"/>
      <point x="95" y="-243" type="curve" smooth="yes"/>
      <point x="45" y="-243"/>
      <point x="35" y="-204"/>
      <point x="35" y="-154" type="curve"/>
      <point x="-30" y="-154" type="line"/>
      <point x="-30" y="-169" type="line" smooth="yes"/>
      <point x="-30" y="-249"/>
      <point x="15" y="-305"/>
      <point x="95" y="-305" type="curve" smooth="yes"/>
      <point x="175" y="-305"/>
      <point x="220" y="-239"/>
      <point x="220" y="-159" type="curve" smooth="yes"/>
    </contour>
    <contour>
      <point x="171" y="40" type="line"/>
      <point x="206" y="40" type="line"/>
      <point x="77" y="409" type="line"/>
      <point x="4" y="409" type="line"/>
      <point x="155" y="0" type="line"/>
      <point x="220" y="0" type="line"/>
      <point x="360" y="409" type="line"/>
      <point x="289" y="409" type="line"/>
    </contour>
  </outline>
</glyph>
<glyph name="braceleft" format="1">
  <advance width="414"/>
  <unicode hex="007B"/>
  <outline>
    <contour>
      <point x="88" y="350" type="line"/>
      <point x="179" y="350"/>
      <point x="268" y="271"/>
      <point x="268" y="171" type="curve" smooth="yes"/>
      <point x="268" y="65" type="line" smooth="yes"/>
      <point x="268" y="-5"/>
      <point x="304" y="-59"/>
      <point x="374" y="-59" type="curve"/>
      <point x="374" y="-124" type="line"/>
      <point x="269" y="-124"/>
      <point x="194" y="-40"/>
      <point x="194" y="65" type="curve" smooth="yes"/>
      <point x="194" y="171" type="line" smooth="yes"/>
      <point x="194" y="241"/>
      <point x="148" y="288"/>
      <point x="88" y="288" type="curve" smooth="yes"/>
      <point x="50" y="288" type="line"/>
      <point x="50" y="358" type="line"/>
      <point x="88" y="358" type="line" smooth="yes"/>
      <point x="148" y="358"/>
      <point x="194" y="405"/>
      <point x="194" y="475" type="curve" smooth="yes"/>
      <point x="194" y="581" type="line" smooth="yes"/>
      <point x="194" y="686"/>
      <point x="269" y="770"/>
      <point x="374" y="770" type="curve"/>
      <point x="374" y="705" type="line"/>
      <point x="304" y="705"/>
      <point x="268" y="651"/>
      <point x="268" y="581" type="curve" smooth="yes"/>
      <point x="268" y="475" type="line" smooth="yes"/>
      <point x="268" y="375"/>
      <point x="179" y="296"/>
      <point x="88" y="296" type="curve"/>
    </contour>
  </outline>
</glyph>
<glyph name="asciitilde" format="1">
  <advance width="510"/>
  <unicode hex="007E"/>
  <outline>
    <contour>
      <point x="189" y="325" type="curve" smooth="yes"/>
      <point x="118" y="325"/>
      <point x="60" y="265"/>
      <point x="60" y="193" type="curve"/>
      <point x="121" y="193" type="line"/>
      <point x="121" y="232"/>
      <point x="151" y="264"/>
      <point x="189" y="264" type="curve" smooth="yes"/>
      <point x="244" y="264"/>
      <point x="255" y="192"/>
      <point x="340" y="192" type="curve" smooth="yes"/>
      <point x="411" y="192"/>
      <point x="470" y="251"/>
      <point x="470" y="323" type="curve"/>
      <point x="409" y="323" type="line"/>
      <point x="409" y="284"/>
      <point x="378" y="253"/>
      <point x="340" y="253" type="curve" smooth="yes"/>
      <point x="285" y="253"/>
      <point x="274" y="325"/>
    </contour>
  </outline>
</glyph>
<glyph name="sterling" format="1">
  <advance width="568"/>
  <unicode hex="00A3"/>
  <outline>
    <component base="J" xScale="-1" yScale="-1" xOffset="548" yOffset="705"/>
    <contour>
      <point x="134" y="65" type="line"/>
      <point x="458" y="65" type="line"/>
      <point x="458" y="0" type="line"/>
      <point x="134" y="0" type="line"/>
    </contour>
    <contour>
      <point x="330" y="317" type="line"/>
      <point x="50" y="317" type="line"/>
      <point x="50" y="387" type="line"/>
      <point x="330" y="387" type="line"/>
    </contour>
  </outline>
</glyph>
<glyph name="yen" format="1">
  <advance width="536"/>
  <unicode hex="00A5"/>
  <outline>
    <component base="Y"/>
    <contour>
      <point x="437" y="237" type="line"/>
      <point x="437" y="177" type="line"/>
      <point x="99" y="177" type="line"/>
      <point x="99" y="237" type="line"/>
    </contour>
    <contour>
      <point x="437" y="377" type="line"/>
      <point x="437" y="317" type="line"/>
      <point x="99" y="317" type="line"/>
      <point x="99" y="377" type="line"/>
    </contour>
  </outline>
</glyph>
<glyph name="section" format="1">
  <advance width="506"/>
  <unicode hex="00A7"/>
  <outline>
    <contour>
      <point x="152" y="397" type="line"/>
      <point x="140" y="377"/>
      <point x="134" y="353"/>
      <point x="134" y="328" type="curve" smooth="yes"/>
      <point x="134" y="256"/>
      <point x="188" y="197"/>
      <point x="258" y="197" type="curve" smooth="yes"/>
      <point x="368" y="197"/>
      <point x="456" y="111"/>
      <point x="456" y="1" type="curve" smooth="yes"/>
      <point x="456" y="-109"/>
      <point x="368" y="-195"/>
      <point x="258" y="-195" type="curve" smooth="yes"/>
      <point x="148" y="-195"/>
      <point x="64" y="-109"/>
      <point x="64" y="1" type="curve" smooth="yes"/>
      <point x="64" y="19" type="line"/>
      <point x="134" y="19" type="line"/>
      <point x="134" y="-1" type="line" smooth="yes"/>
      <point x="134" y="-71"/>
      <point x="188" y="-130"/>
      <point x="258" y="-130" type="curve" smooth="yes"/>
      <point x="328" y="-130"/>
      <point x="382" y="-71"/>
      <point x="382" y="1" type="curve" smooth="yes"/>
      <point x="382" y="73"/>
      <point x="328" y="132"/>
      <point x="258" y="132" type="curve" smooth="yes"/>
      <point x="148" y="132"/>
      <point x="60" y="218"/>
      <point x="60" y="328" type="curve" smooth="yes"/>
      <point x="60" y="381"/>
      <point x="80" y="428"/>
      <point x="113" y="463" type="curve"/>
    </contour>
    <contour>
      <point x="364" y="123" type="line"/>
      <point x="376" y="143"/>
      <point x="382" y="167"/>
      <point x="382" y="192" type="curve" smooth="yes"/>
      <point x="382" y="264"/>
      <point x="328" y="323"/>
      <point x="258" y="323" type="curve" smooth="yes"/>
      <point x="148" y="323"/>
      <point x="60" y="409"/>
      <point x="60" y="519" type="curve" smooth="yes"/>
      <point x="60" y="629"/>
      <point x="148" y="715"/>
      <point x="258" y="715" type="curve" smooth="yes"/>
      <point x="368" y="715"/>
      <point x="452" y="629"/>
      <point x="452" y="519" type="curve" smooth="yes"/>
      <point x="452" y="501" type="line"/>
      <point x="382" y="501" type="line"/>
      <point x="382" y="521" type="line" smooth="yes"/>
      <point x="382" y="591"/>
      <point x="328" y="650"/>
      <point x="258" y="650" type="curve" smooth="yes"/>
      <point x="188" y="650"/>
      <point x="134" y="591"/>
      <point x="134" y="519" type="curve" smooth="yes"/>
      <point x="134" y="447"/>
      <point x="188" y="388"/>
      <point x="258" y="388" type="curve" smooth="yes"/>
      <point x="368" y="388"/>
      <point x="456" y="302"/>
      <point x="456" y="192" type="curve" smooth="yes"/>
      <point x="456" y="139"/>
      <point x="436" y="92"/>
      <point x="403" y="57" type="curve"/>
    </contour>
  </outline>
</glyph>
<glyph name="dieresis" format="1">
  <advance width="318"/>
  <unicode hex="00A8"/>
  <outline>
    <contour>
      <point x="270" y="534" type="line"/>
      <point x="188" y="534" type="line"/>
      <point x="188" y="616" type="line"/>
      <point x="270" y="616" type="line"/>
    </contour>
    <contour>
      <point x="130" y="534" type="line"/>
      <point x="48" y="534" type="line"/>
      <point x="48" y="616" type="line"/>
      <point x="130" y="616" type="line"/>
    </contour>
  </outline>
</glyph>
<glyph name="copyright" format="1">
  <advance width="897"/>
  <unicode hex="00A9"/>
  <outline>
    <contour>
      <point x="50" y="316" type="curve" smooth="yes"/>
      <point x="50" y="97"/>
      <point x="229" y="-82"/>
      <point x="448" y="-82" type="curve" smooth="yes"/>
      <point x="668" y="-82"/>
      <point x="847" y="97"/>
      <point x="847" y="316" type="curve" smooth="yes"/>
      <point x="847" y="536"/>
      <point x="668" y="715"/>
      <point x="448" y="715" type="curve" smooth="yes"/>
      <point x="229" y="715"/>
      <point x="50" y="536"/>
    </contour>
    <contour>
      <point x="119" y="316" type="curve" smooth="yes"/>
      <point x="119" y="505"/>
      <point x="259" y="651"/>
      <point x="448" y="651" type="curve" smooth="yes"/>
      <point x="637" y="651"/>
      <point x="777" y="505"/>
      <point x="777" y="316" type="curve" smooth="yes"/>
      <point x="777" y="127"/>
      <point x="637" y="-18"/>
      <point x="448" y="-18" type="curve" smooth="yes"/>
      <point x="259" y="-18"/>
      <point x="119" y="127"/>
    </contour>
    <contour>
      <point x="619" y="242" type="line"/>
      <point x="596" y="163"/>
      <point x="537" y="102"/>
      <point x="452" y="102" type="curve" smooth="yes"/>
      <point x="342" y="102"/>
      <point x="274" y="206"/>
      <point x="274" y="316" type="curve" smooth="yes"/>
      <point x="274" y="426"/>
      <point x="342" y="531"/>
      <point x="452" y="531" type="curve" smooth="yes"/>
      <point x="536" y="531"/>
      <point x="595" y="470"/>
      <point x="618" y="392" type="curve"/>
      <point x="550" y="392" type="line"/>
      <point x="533" y="437"/>
      <point x="498" y="471"/>
      <point x="452" y="471" type="curve" smooth="yes"/>
      <point x="382" y="471"/>
      <point x="340" y="396"/>
      <point x="340" y="316" type="curve" smooth="yes"/>
      <point x="340" y="236"/>
      <point x="382" y="162"/>
      <point x="452" y="162" type="curve" smooth="yes"/>
      <point x="499" y="162"/>
      <point x="535" y="196"/>
      <point x="551" y="242" type="curve"/>
    </contour>
  </outline>
</glyph>
<glyph name="guillemotleft" format="1">
  <advance width="500"/>
  <unicode hex="00AB"/>
  <outline>
    <contour>
      <point x="50" y="342" type="line"/>
      <point x="250" y="198" type="line"/>
      <point x="250" y="126" type="line"/>
      <point x="50" y="270" type="line"/>
    </contour>
    <contour>
      <point x="50" y="270" type="line" smooth="yes"/>
      <point x="50" y="342" type="line"/>
      <point x="250" y="487" type="line"/>
      <point x="250" y="415" type="line"/>
    </contour>
    <contour>
      <point x="250" y="342" type="line"/>
      <point x="450" y="198" type="line"/>
      <point x="450" y="126" type="line"/>
      <point x="250" y="270" type="line"/>
    </contour>
    <contour>
      <point x="250" y="270" type="line" smooth="yes"/>
      <point x="250" y="342" type="line"/>
      <point x="450" y="487" type="line"/>
      <point x="450" y="415" type="line"/>
    </contour>
  </outline>
</glyph>
<glyph name="logicalnot" format="1">
  <advance width="485"/>
  <unicode hex="00AC"/>
  <outline>
    <contour>
      <point x="399" y="252" type="line"/>
      <point x="50" y="252" type="line"/>
      <point x="50" y="313" type="line"/>
      <point x="435" y="313" type="line"/>
      <point x="435" y="112" type="line"/>
      <point x="365" y="112" type="line"/>
      <point x="365" y="287" type="line"/>
    </contour>
  </outline>
</glyph>
<glyph name="registered" format="1">
  <advance width="897"/>
  <unicode hex="00AE"/>
  <outline>
    <contour>
      <point x="448" y="-82" type="curve" smooth="yes"/>
      <point x="673" y="-82"/>
      <point x="846" y="91"/>
      <point x="846" y="316" type="curve" smooth="yes"/>
      <point x="846" y="541"/>
      <point x="673" y="715"/>
      <point x="448" y="715" type="curve" smooth="yes"/>
      <point x="223" y="715"/>
      <point x="50" y="541"/>
      <point x="50" y="316" type="curve" smooth="yes"/>
      <point x="50" y="91"/>
      <point x="223" y="-82"/>
    </contour>
    <contour>
      <point x="119" y="316" type="curve" smooth="yes"/>
      <point x="119" y="506"/>
      <point x="258" y="651"/>
      <point x="448" y="651" type="curve" smooth="yes"/>
      <point x="638" y="651"/>
      <point x="777" y="506"/>
      <point x="777" y="316" type="curve" smooth="yes"/>
      <point x="777" y="126"/>
      <point x="638" y="-18"/>
      <point x="448" y="-18" type="curve" smooth="yes"/>
      <point x="259" y="-18"/>
      <point x="119" y="126"/>
    </contour>
    <contour>
      <point x="379" y="500" type="line"/>
      <point x="379" y="109" type="line"/>
      <point x="319" y="109" type="line"/>
      <point x="319" y="531" type="line"/>
      <point x="483" y="531" type="line" smooth="yes"/>
      <point x="563" y="531"/>
      <point x="619" y="481"/>
      <point x="619" y="411" type="curve" smooth="yes"/>
      <point x="619" y="341"/>
      <point x="553" y="290"/>
      <point x="483" y="290" type="curve" smooth="yes"/>
      <point x="351" y="290" type="line"/>
      <point x="351" y="347" type="line"/>
      <point x="464" y="347" type="line" smooth="yes"/>
      <point x="514" y="347"/>
      <point x="551" y="362"/>
      <point x="551" y="411" type="curve" smooth="yes"/>
      <point x="551" y="458"/>
      <point x="514" y="474"/>
      <point x="464" y="474" type="curve" smooth="yes"/>
      <point x="350" y="474" type="line"/>
    </contour>
    <contour>
      <point x="435" y="304" type="line"/>
      <point x="504" y="304" type="line"/>
      <point x="616" y="109" type="line"/>
      <point x="546" y="109" type="line"/>
    </contour>
  </outline>
</glyph>
<glyph name="plusminus" format="1">
  <advance width="485"/>
  <unicode hex="00B1"/>
  <outline>
    <component base="plus" yOffset="30"/>
    <contour>
      <point x="435" y="61" type="line"/>
      <point x="435" y="0" type="line"/>
      <point x="50" y="0" type="line"/>
      <point x="50" y="61" type="line"/>
    </contour>
  </outline>
</glyph>
<glyph name="acute" format="1">
  <advance width="229"/>
  <unicode hex="00B4"/>
  <outline>
    <contour>
      <point x="114" y="484" type="line"/>
      <point x="52" y="484" type="line"/>
      <point x="125" y="705" type="line"/>
      <point x="187" y="705" type="line"/>
    </contour>
  </outline>
</glyph>
<glyph name="paragraph" format="1">
  <advance width="552"/>
  <unicode hex="00B6"/>
  <outline>
    <contour>
      <point x="470" y="670" type="line"/>
      <point x="470" y="0" type="line"/>
      <point x="404" y="0" type="line"/>
      <point x="404" y="670" type="line"/>
    </contour>
    <contour>
      <point x="542" y="640" type="line"/>
      <point x="245" y="640" type="line" smooth="yes"/>
      <point x="165" y="640"/>
      <point x="105" y="591"/>
      <point x="105" y="511" type="curve" smooth="yes"/>
      <point x="105" y="431"/>
      <point x="165" y="382"/>
      <point x="245" y="382" type="curve" smooth="yes"/>
      <point x="439" y="382" type="line"/>
      <point x="439" y="317" type="line"/>
      <point x="245" y="317" type="line" smooth="yes"/>
      <point x="135" y="317"/>
      <point x="30" y="391"/>
      <point x="30" y="511" type="curve" smooth="yes"/>
      <point x="30" y="631"/>
      <point x="135" y="705"/>
      <point x="245" y="705" type="curve" smooth="yes"/>
      <point x="542" y="705" type="line"/>
    </contour>
    <contour>
      <point x="330" y="0" type="line"/>
      <point x="264" y="0" type="line"/>
      <point x="264" y="670" type="line"/>
      <point x="330" y="670" type="line"/>
    </contour>
  </outline>
</glyph>
<glyph name="AE" format="1">
  <advance width="834"/>
  <unicode hex="00C6"/>
  <outline>
    <component base="E" xOffset="344"/>
    <contour>
      <point x="422" y="249" type="line"/>
      <point x="192" y="249" type="line"/>
      <point x="192" y="315" type="line"/>
      <point x="422" y="315" type="line"/>
    </contour>
    <contour>
      <point x="78" y="0" type="line"/>
      <point x="0" y="0" type="line"/>
      <point x="409" y="705" type="line"/>
      <point x="465" y="667" type="line"/>
    </contour>
  </outline>
</glyph>
<glyph name="Eth" format="1">
  <advance width="636"/>
  <unicode hex="00D0"/>
  <outline>
    <component base="D" xOffset="35"/>
    <contour>
      <point x="280" y="385" type="line"/>
      <point x="20" y="385" type="line"/>
      <point x="20" y="319" type="line"/>
      <point x="280" y="319" type="line"/>
    </contour>
  </outline>
</glyph>
<glyph name="multiply" format="1">
  <advance width="447"/>
  <unicode hex="00D7"/>
  <outline>
    <contour>
      <point x="397" y="155" type="line"/>
      <point x="351" y="109" type="line"/>
      <point x="50" y="410" type="line"/>
      <point x="96" y="456" type="line"/>
    </contour>
    <contour>
      <point x="351" y="456" type="line"/>
      <point x="397" y="410" type="line"/>
      <point x="96" y="109" type="line"/>
      <point x="50" y="155" type="line"/>
    </contour>
  </outline>
</glyph>
<glyph name="Oslash" format="1">
  <advance width="630"/>
  <unicode hex="00D8"/>
  <outline>
    <component base="O"/>
    <contour>
      <point x="120" y="0" type="line"/>
      <point x="40" y="0" type="line"/>
      <point x="510" y="705" type="line"/>
      <point x="590" y="705" type="line"/>
    </contour>
  </outline>
</glyph>
<glyph name="ae" format="1">
  <advance width="695"/>
  <unicode hex="00E6"/>
  <outline>
    <contour>
      <point x="205" y="419" type="curve" smooth="yes"/>
      <point x="295" y="419"/>
      <point x="355" y="363"/>
      <point x="355" y="273" type="curve" smooth="yes"/>
      <point x="355" y="214" type="line"/>
      <point x="290" y="214" type="line"/>
      <point x="290" y="258" type="line" smooth="yes"/>
      <point x="290" y="323"/>
      <point x="265" y="361"/>
      <point x="200" y="361" type="curve" smooth="yes"/>
      <point x="155" y="361"/>
      <point x="120" y="330"/>
      <point x="120" y="290" type="curve"/>
      <point x="57" y="290" type="line"/>
      <point x="57" y="370"/>
      <point x="120" y="419"/>
    </contour>
    <contour>
      <point x="105" y="121" type="curve" smooth="yes"/>
      <point x="105" y="69"/>
      <point x="148" y="48"/>
      <point x="198" y="48" type="curve" smooth="yes"/>
      <point x="256" y="48"/>
      <point x="299" y="69"/>
      <point x="299" y="121" type="curve" smooth="yes"/>
      <point x="299" y="172"/>
      <point x="256" y="193"/>
      <point x="198" y="193" type="curve" smooth="yes"/>
      <point x="148" y="193"/>
      <point x="105" y="172"/>
    </contour>
    <contour>
      <point x="369" y="121" type="line"/>
      <point x="368" y="41"/>
      <point x="288" y="-10"/>
      <point x="198" y="-10" type="curve" smooth="yes"/>
      <point x="118" y="-10"/>
      <point x="40" y="36"/>
      <point x="40" y="121" type="curve" smooth="yes"/>
      <point x="40" y="206"/>
      <point x="118" y="251"/>
      <point x="198" y="251" type="curve" smooth="yes"/>
      <point x="279" y="251"/>
      <point x="354" y="202"/>
      <point x="354" y="121" type="curve"/>
    </contour>
    <contour>
      <point x="645" y="195" type="line"/>
      <point x="347" y="195" type="line"/>
      <point x="347" y="253" type="line"/>
      <point x="589" y="253" type="line"/>
      <point x="578" y="204" type="line"/>
      <point x="578" y="284"/>
      <point x="538" y="358"/>
      <point x="468" y="358" type="curve" smooth="yes"/>
      <point x="398" y="358"/>
      <point x="357" y="284"/>
      <point x="357" y="204" type="curve" smooth="yes"/>
      <point x="357" y="124"/>
      <point x="398" y="51"/>
      <point x="468" y="51" type="curve" smooth="yes"/>
      <point x="515" y="51"/>
      <point x="555" y="85"/>
      <point x="573" y="130" type="curve"/>
      <point x="641" y="130" type="line"/>
      <point x="618" y="51"/>
      <point x="553" y="-10"/>
      <point x="468" y="-10" type="curve" smooth="yes"/>
      <point x="358" y="-10"/>
      <point x="290" y="94"/>
      <point x="290" y="204" type="curve" smooth="yes"/>
      <point x="290" y="314"/>
      <point x="358" y="419"/>
      <point x="468" y="419" type="curve" smooth="yes"/>
      <point x="578" y="419"/>
      <point x="645" y="314"/>
      <point x="645" y="204" type="curve" smooth="yes"/>
    </contour>
  </outline>
</glyph>
<glyph name="divide" format="1">
  <advance width="485"/>
  <unicode hex="00F7"/>
  <outline>
    <contour>
      <point x="435" y="313" type="line"/>
      <point x="435" y="252" type="line"/>
      <point x="50" y="252" type="line"/>
      <point x="50" y="313" type="line"/>
    </contour>
    <component base="period" xOffset="153" yOffset="70"/>
    <component base="period" xOffset="153" yOffset="417"/>
  </outline>
</glyph>
<glyph name="dotlessi" format="1">
  <advance width="175"/>
  <unicode hex="0131"/>
  <outline>
    <contour>
      <point x="120" y="0" type="line"/>
      <point x="55" y="0" type="line"/>
      <point x="55" y="409" type="line"/>
      <point x="120" y="409" type="line"/>
    </contour>
  </outline>
</glyph>
<glyph name="Lslash" format="1">
  <advance width="510"/>
  <unicode hex="0141"/>
  <outline>
    <component base="L" xOffset="35"/>
    <contour>
      <point x="280" y="457" type="line"/>
      <point x="20" y="317" type="line"/>
      <point x="20" y="247" type="line"/>
      <point x="280" y="387" type="line"/>
    </contour>
  </outline>
</glyph>
<glyph name="Racute" format="1">
  <advance width="552"/>
  <unicode hex="0154"/>
  <outline>
    <component base="P"/>
    <component base="acute.case" xOffset="166"/>
    <contour>
      <point x="261" y="326" type="line"/>
      <point x="341" y="326" type="line"/>
      <point x="517" y="0" type="line"/>
      <point x="437" y="0" type="line"/>
    </contour>
  </outline>
</glyph>
<glyph name="florin" format="1">
  <advance width="358"/>
  <unicode hex="0192"/>
  <outline>
    <contour>
      <point x="338" y="650" type="line"/>
      <point x="258" y="650"/>
      <point x="214" y="583"/>
      <point x="214" y="503" type="curve" smooth="yes"/>
      <point x="214" y="42" type="line" smooth="yes"/>
      <point x="214" y="-78"/>
      <point x="140" y="-170"/>
      <point x="20" y="-170" type="curve"/>
      <point x="20" y="-105" type="line"/>
      <point x="100" y="-105"/>
      <point x="144" y="-38"/>
      <point x="144" y="42" type="curve" smooth="yes"/>
      <point x="144" y="503" type="line" smooth="yes"/>
      <point x="144" y="623"/>
      <point x="218" y="715"/>
      <point x="338" y="715" type="curve"/>
    </contour>
    <contour>
      <point x="330" y="317" type="line"/>
      <point x="50" y="317" type="line"/>
      <point x="50" y="387" type="line"/>
      <point x="330" y="387" type="line"/>
    </contour>
  </outline>
</glyph>
<glyph name="uni0243" format="1">
  <advance width="565"/>
  <unicode hex="0243"/>
  <outline>
    <contour>
      <point x="274" y="165" type="line"/>
      <point x="30" y="165" type="line"/>
      <point x="30" y="225" type="line"/>
      <point x="274" y="225" type="line"/>
    </contour>
    <contour>
      <point x="93" y="705" type="line"/>
      <point x="319" y="705" type="line" smooth="yes"/>
      <point x="419" y="705"/>
      <point x="501" y="628"/>
      <point x="501" y="528" type="curve" smooth="yes"/>
      <point x="501" y="428"/>
      <point x="419" y="357"/>
      <point x="319" y="357" type="curve"/>
      <point x="319" y="417" type="line"/>
      <point x="439" y="417"/>
      <point x="535" y="331"/>
      <point x="535" y="211" type="curve" smooth="yes"/>
      <point x="535" y="91"/>
      <point x="439" y="0"/>
      <point x="319" y="0" type="curve" smooth="yes"/>
      <point x="93" y="0" type="line"/>
    </contour>
    <contour>
      <point x="163" y="681" type="line"/>
      <point x="163" y="38" type="line"/>
      <point x="125" y="65" type="line"/>
      <point x="319" y="65" type="line" smooth="yes"/>
      <point x="399" y="65"/>
      <point x="460" y="133"/>
      <point x="460" y="211" type="curve" smooth="yes"/>
      <point x="460" y="289"/>
      <point x="399" y="354"/>
      <point x="319" y="354" type="curve" smooth="yes"/>
      <point x="126" y="354" type="line"/>
      <point x="126" y="420" type="line"/>
      <point x="319" y="420" type="line" smooth="yes"/>
      <point x="379" y="420"/>
      <point x="426" y="468"/>
      <point x="426" y="528" type="curve" smooth="yes"/>
      <point x="426" y="588"/>
      <point x="378" y="640"/>
      <point x="319" y="640" type="curve" smooth="yes"/>
      <point x="125" y="640" type="line"/>
    </contour>
  </outline>
</glyph>
<glyph name="circumflex" format="1">
  <advance width="350"/>
  <unicode hex="02C6"/>
  <outline>
    <contour>
      <point x="280" y="484" type="line"/>
      <point x="222" y="484" type="line"/>
      <point x="162" y="668" type="line"/>
      <point x="187" y="668" type="line"/>
      <point x="127" y="484" type="line"/>
      <point x="70" y="484" type="line"/>
      <point x="147" y="705" type="line"/>
      <point x="203" y="705" type="line"/>
    </contour>
  </outline>
</glyph>
<glyph name="caron" format="1">
  <advance width="350"/>
  <unicode hex="02C7"/>
  <outline>
    <contour>
      <point x="300" y="705" type="line"/>
      <point x="238" y="705" type="line"/>
      <point x="167" y="544" type="line"/>
      <point x="182" y="544" type="line"/>
      <point x="111" y="705" type="line"/>
      <point x="50" y="705" type="line"/>
      <point x="147" y="484" type="line"/>
      <point x="203" y="484" type="line"/>
    </contour>
  </outline>
</glyph>
<glyph name="breve" format="1">
  <advance width="335"/>
  <unicode hex="02D8"/>
  <outline>
    <contour>
      <point x="285" y="635" type="line"/>
      <point x="285" y="570"/>
      <point x="232" y="518"/>
      <point x="167" y="518" type="curve" smooth="yes"/>
      <point x="102" y="518"/>
      <point x="50" y="570"/>
      <point x="50" y="635" type="curve"/>
      <point x="105" y="635" type="line"/>
      <point x="105" y="600"/>
      <point x="132" y="570"/>
      <point x="167" y="570" type="curve" smooth="yes"/>
      <point x="202" y="570"/>
      <point x="230" y="600"/>
      <point x="230" y="635" type="curve"/>
    </contour>
  </outline>
</glyph>
<glyph name="dotaccent" format="1">
  <advance width="178"/>
  <unicode hex="02D9"/>
  <outline>
    <contour>
      <point x="130" y="557" type="line"/>
      <point x="48" y="557" type="line"/>
      <point x="48" y="637" type="line"/>
      <point x="130" y="637" type="line"/>
    </contour>
  </outline>
</glyph>
<glyph name="ring" format="1">
  <advance width="335"/>
  <unicode hex="02DA"/>
  <outline>
    <contour>
      <point x="62" y="597" type="curve" smooth="yes"/>
      <point x="62" y="538"/>
      <point x="108" y="492"/>
      <point x="167" y="492" type="curve" smooth="yes"/>
      <point x="226" y="492"/>
      <point x="273" y="538"/>
      <point x="273" y="597" type="curve" smooth="yes"/>
      <point x="273" y="656"/>
      <point x="226" y="703"/>
      <point x="167" y="703" type="curve" smooth="yes"/>
      <point x="108" y="703"/>
      <point x="62" y="656"/>
    </contour>
    <contour>
      <point x="114" y="597" type="curve" smooth="yes"/>
      <point x="114" y="627"/>
      <point x="137" y="654"/>
      <point x="167" y="654" type="curve" smooth="yes"/>
      <point x="197" y="654"/>
      <point x="221" y="627"/>
      <point x="221" y="597" type="curve" smooth="yes"/>
      <point x="221" y="567"/>
      <point x="197" y="541"/>
      <point x="167" y="541" type="curve" smooth="yes"/>
      <point x="137" y="541"/>
      <point x="114" y="567"/>
    </contour>
  </outline>
</glyph>
<glyph name="ogonek" format="1">
  <advance width="274"/>
  <unicode hex="02DB"/>
  <outline>
    <contour>
      <point x="96" y="-153" type="line"/>
      <point x="96" y="-58"/>
      <point x="136" y="22"/>
      <point x="191" y="22" type="curve" smooth="yes"/>
      <point x="206" y="22" type="line"/>
      <point x="234" y="0" type="line"/>
      <point x="174" y="0"/>
      <point x="164" y="-73"/>
      <point x="164" y="-153" type="curve"/>
    </contour>
  </outline>
</glyph>
<glyph name="quotedblleft" format="1">
  <advance width="351"/>
  <unicode hex="201C"/>
  <outline>
    <contour>
      <point x="189" y="705" type="line"/>
      <point x="123" y="705" type="line"/>
      <point x="50" y="550" type="line"/>
      <point x="50" y="484" type="line"/>
      <point x="116" y="484" type="line"/>
      <point x="116" y="550" type="line"/>
    </contour>
    <contour>
      <point x="321" y="705" type="line"/>
      <point x="255" y="705" type="line"/>
      <point x="182" y="550" type="line"/>
      <point x="182" y="484" type="line"/>
      <point x="248" y="484" type="line"/>
      <point x="248" y="550" type="line"/>
    </contour>
  </outline>
</glyph>
<glyph name="daggerdbl" format="1">
  <advance width="438"/>
  <unicode hex="2021"/>
  <outline>
    <component base="bar" xOffset="124"/>
    <contour>
      <point x="388" y="494" type="line"/>
      <point x="388" y="434" type="line"/>
      <point x="50" y="434" type="line"/>
      <point x="50" y="494" type="line"/>
    </contour>
    <contour>
      <point x="388" y="212" type="line"/>
      <point x="388" y="152" type="line"/>
      <point x="50" y="152" type="line"/>
      <point x="50" y="212" type="line"/>
    </contour>
  </outline>
</glyph>
<glyph name="arrowleft" format="1">
  <advance width="620"/>
  <unicode hex="2190"/>
  <outline>
    <contour>
      <point x="570" y="312" type="line"/>
      <point x="110" y="312" type="line"/>
      <point x="110" y="252" type="line"/>
      <point x="570" y="252" type="line"/>
    </contour>
    <contour>
      <point x="198" y="383" type="line"/>
      <point x="30" y="282" type="line"/>
      <point x="198" y="181" type="line"/>
    </contour>
  </outline>
</glyph>
<glyph name="arrowup" format="1">
  <advance width="322"/>
  <unicode hex="2191"/>
  <outline>
    <contour>
      <point x="131" y="90" type="line"/>
      <point x="131" y="550" type="line"/>
      <point x="191" y="550" type="line"/>
      <point x="191" y="90" type="line"/>
    </contour>
    <contour>
      <point x="60" y="462" type="line"/>
      <point x="161" y="630" type="line"/>
      <point x="262" y="462" type="line"/>
    </contour>
  </outline>
</glyph>
<glyph name="arrowboth" format="1">
  <advance width="730"/>
  <unicode hex="2194"/>
  <outline>
    <component base="arrowleft"/>
    <contour>
      <point x="532" y="181" type="line"/>
      <point x="700" y="282" type="line"/>
      <point x="532" y="383" type="line"/>
    </contour>
  </outline>
</glyph>
<glyph name="arrowupdn" format="1">
  <advance width="322"/>
  <unicode hex="2195"/>
  <outline>
    <contour>
      <point x="262" y="168" type="line"/>
      <point x="161" y="0" type="line"/>
      <point x="60" y="168" type="line"/>
    </contour>
    <component base="arrowup"/>
  </outline>
</glyph>
<glyph name="uni2197" format="1">
  <advance width="523"/>
  <unicode hex="2197"/>
  <outline>
    <contour>
      <point x="102" y="91" type="line"/>
      <point x="428" y="416" type="line"/>
      <point x="385" y="459" type="line"/>
      <point x="60" y="133" type="line"/>
    </contour>
    <contour>
      <point x="416" y="304" type="line"/>
      <point x="463" y="494" type="line"/>
      <point x="273" y="447" type="line"/>
    </contour>
  </outline>
</glyph>
<glyph name="uni2198" format="1">
  <advance width="523"/>
  <unicode hex="2198"/>
  <outline>
    <contour>
      <point x="102" y="494" type="line"/>
      <point x="428" y="169" type="line"/>
      <point x="385" y="126" type="line"/>
      <point x="60" y="452" type="line"/>
    </contour>
    <contour>
      <point x="416" y="281" type="line"/>
      <point x="463" y="91" type="line"/>
      <point x="273" y="138" type="line"/>
    </contour>
  </outline>
</glyph>
<glyph name="uni2199" format="1">
  <advance width="523"/>
  <unicode hex="2199"/>
  <outline>
    <contour>
      <point x="421" y="494" type="line"/>
      <point x="95" y="169" type="line"/>
      <point x="138" y="126" type="line"/>
      <point x="463" y="452" type="line"/>
    </contour>
    <contour>
      <point x="107" y="281" type="line"/>
      <point x="60" y="91" type="line"/>
      <point x="250" y="138" type="line"/>
    </contour>
  </outline>
</glyph>
<glyph name="notequal" format="1">
  <advance width="438"/>
  <unicode hex="2260"/>
  <outline>
    <component base="equal"/>
    <contour>
      <point x="388" y="487" type="line"/>
      <point x="323" y="487" type="line"/>
      <point x="50" y="67" type="line"/>
      <point x="115" y="67" type="line"/>
    </contour>
  </outline>
</glyph>
<glyph name="lessequal" format="1">
  <advance width="485"/>
  <unicode hex="2264"/>
  <outline>
    <component base="less" xOffset="20" yOffset="80"/>
    <contour>
      <point x="60" y="290" type="line"/>
      <point x="60" y="218" type="line"/>
      <point x="420" y="1" type="line"/>
      <point x="420" y="73" type="line"/>
    </contour>
  </outline>
</glyph>
<glyph name="greaterequal" format="1">
  <advance width="485"/>
  <unicode hex="2265"/>
  <outline>
    <component base="less" xScale="-1" xOffset="462" yOffset="70"/>
    <contour>
      <point x="420" y="290" type="line"/>
      <point x="420" y="218" type="line"/>
      <point x="60" y="1" type="line"/>
      <point x="60" y="73" type="line"/>
    </contour>
  </outline>
</glyph>
<glyph name="lozenge" format="1">
  <advance width="472"/>
  <unicode hex="25CA"/>
  <outline>
    <contour>
      <point x="197" y="0" type="line"/>
      <point x="275" y="0" type="line"/>
      <point x="432" y="352" type="line"/>
      <point x="275" y="705" type="line"/>
      <point x="197" y="705" type="line"/>
      <point x="40" y="352" type="line"/>
    </contour>
    <contour>
      <point x="239" y="60" type="line"/>
      <point x="98" y="387" type="line"/>
      <point x="98" y="317" type="line"/>
      <point x="239" y="645" type="line"/>
      <point x="233" y="645" type="line"/>
      <point x="374" y="317" type="line"/>
      <point x="374" y="387" type="line"/>
      <point x="233" y="60" type="line"/>
    </contour>
  </outline>
</glyph>
<glyph name="openbullet" format="1">
  <advance width="589"/>
  <unicode hex="25E6"/>
  <outline>
    <contour>
      <point x="81" y="334" type="curve" smooth="yes"/>
      <point x="81" y="216"/>
      <point x="176" y="121"/>
      <point x="294" y="121" type="curve" smooth="yes"/>
      <point x="412" y="121"/>
      <point x="508" y="216"/>
      <point x="508" y="334" type="curve" smooth="yes"/>
      <point x="508" y="452"/>
      <point x="412" y="548"/>
      <point x="294" y="548" type="curve" smooth="yes"/>
      <point x="176" y="548"/>
      <point x="81" y="452"/>
    </contour>
    <contour>
      <point x="161" y="334" type="curve" smooth="yes"/>
      <point x="161" y="407"/>
      <point x="221" y="468"/>
      <point x="294" y="468" type="curve" smooth="yes"/>
      <point x="367" y="468"/>
      <point x="428" y="407"/>
      <point x="428" y="334" type="curve" smooth="yes"/>
      <point x="428" y="261"/>
      <point x="367" y="201"/>
      <point x="294" y="201" type="curve" smooth="yes"/>
      <point x="221" y="201"/>
      <point x="161" y="261"/>
    </contour>
  </outline>
</glyph>
<glyph name="f_f" format="1">
  <advance width="533"/>
  <unicode hex="FB00"/>
  <outline>
    <contour>
      <point x="300" y="409" type="line"/>
      <point x="30" y="409" type="line"/>
      <point x="30" y="349" type="line"/>
      <point x="300" y="349" type="line"/>
    </contour>
    <contour>
      <point x="333" y="534" type="line"/>
      <point x="398" y="534" type="line"/>
      <point x="398" y="579" type="line" smooth="yes"/>
      <point x="398" y="649"/>
      <point x="349" y="715"/>
      <point x="259" y="715" type="curve" smooth="yes"/>
      <point x="169" y="715"/>
      <point x="115" y="660"/>
      <point x="115" y="570" type="curve" smooth="yes"/>
      <point x="115" y="0" type="line"/>
      <point x="180" y="0" type="line"/>
      <point x="180" y="575" type="line" smooth="yes"/>
      <point x="180" y="625"/>
      <point x="209" y="655"/>
      <point x="259" y="655" type="curve" smooth="yes"/>
      <point x="309" y="655"/>
      <point x="333" y="623"/>
      <point x="333" y="573" type="curve"/>
    </contour>
    <component base="f" xOffset="218"/>
  </outline>
</glyph>
<glyph name="fl" format="1">
  <advance width="453"/>
  <unicode hex="FB02"/>
  <outline>
    <contour>
      <point x="270" y="349" type="line"/>
      <point x="30" y="349" type="line"/>
      <point x="30" y="409" type="line"/>
      <point x="270" y="409" type="line"/>
    </contour>
    <contour>
      <point x="398" y="0" type="line"/>
      <point x="333" y="0" type="line"/>
      <point x="333" y="705" type="line"/>
      <point x="398" y="705" type="line"/>
    </contour>
    <contour>
      <point x="335" y="612" type="line"/>
      <point x="319" y="637"/>
      <point x="294" y="655"/>
      <point x="259" y="655" type="curve" smooth="yes"/>
      <point x="209" y="655"/>
      <point x="180" y="625"/>
      <point x="180" y="575" type="curve" smooth="yes"/>
      <point x="180" y="0" type="line"/>
      <point x="115" y="0" type="line"/>
      <point x="115" y="570" type="line" smooth="yes"/>
      <point x="115" y="660"/>
      <point x="169" y="715"/>
      <point x="259" y="715" type="curve" smooth="yes"/>
      <point x="304" y="715"/>
      <point x="326" y="693"/>
      <point x="339" y="679" type="curve"/>
    </contour>
  </outline>
</glyph>
<glyph name="f_f_i" format="1">
  <advance width="671"/>
  <unicode hex="FB03"/>
  <outline>
    <contour>
      <point x="300" y="349" type="line"/>
      <point x="30" y="349" type="line"/>
      <point x="30" y="409" type="line"/>
      <point x="300" y="409" type="line"/>
    </contour>
    <contour>
      <point x="333" y="573" type="line"/>
      <point x="333" y="623"/>
      <point x="309" y="655"/>
      <point x="259" y="655" type="curve" smooth="yes"/>
      <point x="209" y="655"/>
      <point x="180" y="625"/>
      <point x="180" y="575" type="curve" smooth="yes"/>
      <point x="180" y="0" type="line"/>
      <point x="115" y="0" type="line"/>
      <point x="115" y="570" type="line" smooth="yes"/>
      <point x="115" y="660"/>
      <point x="169" y="715"/>
      <point x="259" y="715" type="curve" smooth="yes"/>
      <point x="349" y="715"/>
      <point x="398" y="649"/>
      <point x="398" y="579" type="curve" smooth="yes"/>
      <point x="398" y="534" type="line"/>
      <point x="333" y="534" type="line"/>
    </contour>
    <contour>
      <point x="578" y="349" type="line"/>
      <point x="248" y="349" type="line"/>
      <point x="248" y="409" type="line"/>
      <point x="578" y="409" type="line"/>
    </contour>
    <contour>
      <point x="551" y="573" type="line"/>
      <point x="551" y="623"/>
      <point x="527" y="655"/>
      <point x="477" y="655" type="curve" smooth="yes"/>
      <point x="427" y="655"/>
      <point x="398" y="625"/>
      <point x="398" y="575" type="curve" smooth="yes"/>
      <point x="398" y="0" type="line"/>
      <point x="333" y="0" type="line"/>
      <point x="333" y="570" type="line" smooth="yes"/>
      <point x="333" y="660"/>
      <point x="387" y="715"/>
      <point x="477" y="715" type="curve" smooth="yes"/>
      <point x="567" y="715"/>
      <point x="616" y="649"/>
      <point x="616" y="579" type="curve" smooth="yes"/>
      <point x="616" y="534" type="line"/>
      <point x="551" y="534" type="line"/>
    </contour>
    <contour>
      <point x="616" y="0" type="line"/>
      <point x="551" y="0" type="line"/>
      <point x="551" y="409" type="line"/>
      <point x="616" y="409" type="line"/>
    </contour>
  </outline>
</glyph>
<glyph name="f_f_l" format="1">
  <advance width="671"/>
  <unicode hex="FB04"/>
  <outline>
    <contour>
      <point x="30" y="349" type="line"/>
      <point x="30" y="409" type="line"/>
      <point x="488" y="409" type="line"/>
      <point x="488" y="349" type="line"/>
    </contour>
    <contour>
      <point x="333" y="573" type="line" smooth="yes"/>
      <point x="333" y="623"/>
      <point x="309" y="655"/>
      <point x="259" y="655" type="curve" smooth="yes"/>
      <point x="209" y="655"/>
      <point x="180" y="625"/>
      <point x="180" y="575" type="curve" smooth="yes"/>
      <point x="180" y="0" type="line"/>
      <point x="115" y="0" type="line"/>
      <point x="115" y="570" type="line" smooth="yes"/>
      <point x="115" y="660"/>
      <point x="169" y="715"/>
      <point x="259" y="715" type="curve" smooth="yes"/>
      <point x="349" y="715"/>
      <point x="398" y="649"/>
      <point x="398" y="579" type="curve" smooth="yes"/>
      <point x="398" y="534" type="line"/>
      <point x="333" y="534" type="line"/>
    </contour>
    <contour>
      <point x="616" y="0" type="line"/>
      <point x="551" y="0" type="line"/>
      <point x="551" y="705" type="line"/>
      <point x="616" y="705" type="line"/>
    </contour>
    <contour>
      <point x="553" y="612" type="line"/>
      <point x="537" y="637"/>
      <point x="512" y="655"/>
      <point x="477" y="655" type="curve" smooth="yes"/>
      <point x="427" y="655"/>
      <point x="398" y="625"/>
      <point x="398" y="575" type="curve" smooth="yes"/>
      <point x="398" y="0" type="line"/>
      <point x="333" y="0" type="line"/>
      <point x="333" y="570" type="line" smooth="yes"/>
      <point x="333" y="660"/>
      <point x="387" y="715"/>
      <point x="477" y="715" type="curve" smooth="yes"/>
      <point x="522" y="715"/>
      <point x="544" y="693"/>
      <point x="557" y="679" type="curve"/>
    </contour>
  </outline>
</glyph>
<glyph name=".notdef" format="1">
  <advance width="540"/>
  <outline>
    <contour>
      <point x="50" y="0" type="line"/>
      <point x="490" y="0" type="line"/>
      <point x="490" y="705" type="line"/>
      <point x="50" y="705" type="line"/>
    </contour>
    <contour>
      <point x="120" y="635" type="line"/>
      <point x="420" y="635" type="line"/>
      <point x="420" y="70" type="line"/>
      <point x="120" y="70" type="line"/>
    </contour>
  </outline>
</glyph>
<glyph name=".null" format="1">
  <advance width="540"/>
  <outline>
    <contour>
      <point x="466" y="670" type="line"/>
      <point x="387" y="670" type="line"/>
      <point x="88" y="47" type="line"/>
      <point x="167" y="47" type="line"/>
    </contour>
    <component base=".notdef"/>
  </outline>
</glyph>
<glyph name="a.alt" format="1">
  <advance width="442"/>
  <outline>
    <contour>
      <point x="327" y="0" type="line"/>
      <point x="392" y="0" type="line"/>
      <point x="392" y="409" type="line"/>
      <point x="327" y="409" type="line"/>
    </contour>
    <contour>
      <point x="217" y="-10" type="curve" smooth="yes"/>
      <point x="327" y="-10"/>
      <point x="365" y="104"/>
      <point x="365" y="204" type="curve" smooth="yes"/>
      <point x="365" y="304"/>
      <point x="327" y="419"/>
      <point x="217" y="419" type="curve" smooth="yes"/>
      <point x="107" y="419"/>
      <point x="40" y="314"/>
      <point x="40" y="204" type="curve" smooth="yes"/>
      <point x="40" y="94"/>
      <point x="107" y="-10"/>
    </contour>
    <contour>
      <point x="217" y="357" type="curve" smooth="yes"/>
      <point x="287" y="357"/>
      <point x="327" y="284"/>
      <point x="327" y="204" type="curve" smooth="yes"/>
      <point x="327" y="124"/>
      <point x="287" y="52"/>
      <point x="217" y="52" type="curve" smooth="yes"/>
      <point x="147" y="52"/>
      <point x="108" y="124"/>
      <point x="108" y="204" type="curve" smooth="yes"/>
      <point x="108" y="284"/>
      <point x="147" y="357"/>
    </contour>
  </outline>
</glyph>
<glyph name="b.alt" format="1">
  <advance width="416"/>
  <outline>
    <contour>
      <point x="209" y="-10" type="curve" smooth="yes"/>
      <point x="99" y="-10"/>
      <point x="61" y="104"/>
      <point x="61" y="204" type="curve" smooth="yes"/>
      <point x="61" y="304"/>
      <point x="99" y="419"/>
      <point x="209" y="419" type="curve" smooth="yes"/>
      <point x="319" y="419"/>
      <point x="386" y="314"/>
      <point x="386" y="204" type="curve" smooth="yes"/>
      <point x="386" y="94"/>
      <point x="319" y="-10"/>
    </contour>
    <contour>
      <point x="209" y="357" type="curve" smooth="yes"/>
      <point x="139" y="357"/>
      <point x="99" y="284"/>
      <point x="99" y="204" type="curve" smooth="yes"/>
      <point x="99" y="124"/>
      <point x="139" y="52"/>
      <point x="209" y="52" type="curve" smooth="yes"/>
      <point x="279" y="52"/>
      <point x="318" y="124"/>
      <point x="318" y="204" type="curve" smooth="yes"/>
      <point x="318" y="284"/>
      <point x="279" y="357"/>
    </contour>
  </outline>
</glyph>
<glyph name="breve.case" format="1">
  <advance width="300"/>
  <outline>
    <contour>
      <point x="268" y="840" type="line"/>
      <point x="268" y="770"/>
      <point x="215" y="723"/>
      <point x="150" y="723" type="curve" smooth="yes"/>
      <point x="85" y="723"/>
      <point x="33" y="770"/>
      <point x="33" y="840" type="curve"/>
      <point x="90" y="840" type="line"/>
      <point x="90" y="805"/>
      <point x="110" y="773"/>
      <point x="150" y="773" type="curve" smooth="yes"/>
      <point x="190" y="773"/>
      <point x="211" y="805"/>
      <point x="211" y="840" type="curve"/>
    </contour>
  </outline>
</glyph>
<glyph name="bullet.alt" format="1">
  <advance width="589"/>
  <outline>
    <contour>
      <point x="81" y="334" type="curve" smooth="yes"/>
      <point x="81" y="216"/>
      <point x="176" y="121"/>
      <point x="294" y="121" type="curve" smooth="yes"/>
      <point x="412" y="121"/>
      <point x="508" y="216"/>
      <point x="508" y="334" type="curve" smooth="yes"/>
      <point x="508" y="452"/>
      <point x="412" y="548"/>
      <point x="294" y="548" type="curve" smooth="yes"/>
      <point x="176" y="548"/>
      <point x="81" y="452"/>
    </contour>
    <contour>
      <point x="164" y="334" type="curve" smooth="yes"/>
      <point x="164" y="407"/>
      <point x="221" y="468"/>
      <point x="294" y="468" type="curve" smooth="yes"/>
      <point x="367" y="468"/>
      <point x="425" y="407"/>
      <point x="425" y="334" type="curve" smooth="yes"/>
      <point x="425" y="261"/>
      <point x="367" y="201"/>
      <point x="294" y="201" type="curve" smooth="yes"/>
      <point x="221" y="201"/>
      <point x="164" y="261"/>
    </contour>
  </outline>
</glyph>
<glyph name="circumflex.case" format="1">
  <advance width="300"/>
  <outline>
    <contour>
      <point x="265" y="740" type="line"/>
      <point x="198" y="740" type="line"/>
      <point x="137" y="837" type="line"/>
      <point x="162" y="837" type="line"/>
      <point x="101" y="740" type="line"/>
      <point x="35" y="740" type="line"/>
      <point x="122" y="865" type="line"/>
      <point x="178" y="865" type="line"/>
    </contour>
  </outline>
</glyph>
<glyph name="dieresis.case" format="1">
  <advance width="300"/>
  <outline>
    <contour>
      <point x="259" y="760" type="line"/>
      <point x="181" y="760" type="line"/>
      <point x="181" y="838" type="line"/>
      <point x="259" y="838" type="line"/>
    </contour>
    <contour>
      <point x="119" y="760" type="line"/>
      <point x="41" y="760" type="line"/>
      <point x="41" y="838" type="line"/>
      <point x="119" y="838" type="line"/>
    </contour>
  </outline>
</glyph>
<glyph name="e.superior" format="1">
  <advance width="455"/>
  <outline>
    <contour>
      <point x="400" y="446" type="line"/>
      <point x="383" y="353"/>
      <point x="321" y="286"/>
      <point x="228" y="286" type="curve" smooth="yes"/>
      <point x="118" y="286"/>
      <point x="50" y="380"/>
      <point x="50" y="500" type="curve" smooth="yes"/>
      <point x="50" y="620"/>
      <point x="118" y="715"/>
      <point x="228" y="715" type="curve" smooth="yes"/>
      <point x="338" y="715"/>
      <point x="405" y="620"/>
      <point x="405" y="500" type="curve" smooth="yes"/>
      <point x="405" y="495" type="line"/>
      <point x="87" y="495" type="line"/>
      <point x="87" y="555" type="line"/>
      <point x="349" y="555" type="line"/>
      <point x="340" y="500" type="line"/>
      <point x="340" y="585"/>
      <point x="303" y="650"/>
      <point x="228" y="650" type="curve" smooth="yes"/>
      <point x="153" y="650"/>
      <point x="115" y="585"/>
      <point x="115" y="500" type="curve" smooth="yes"/>
      <point x="115" y="415"/>
      <point x="153" y="351"/>
      <point x="228" y="351" type="curve" smooth="yes"/>
      <point x="286" y="351"/>
      <point x="321" y="389"/>
      <point x="334" y="446" type="curve"/>
    </contour>
  </outline>
</glyph>
<glyph name="f.superior" format="1">
  <advance width="290"/>
  <outline>
    <contour>
      <point x="250" y="705" type="line"/>
      <point x="40" y="705" type="line"/>
      <point x="40" y="645" type="line"/>
      <point x="250" y="645" type="line"/>
    </contour>
    <contour>
      <point x="235" y="851" type="line"/>
      <point x="155" y="851"/>
      <point x="110" y="785"/>
      <point x="110" y="705" type="curve" smooth="yes"/>
      <point x="110" y="296" type="line"/>
      <point x="175" y="296" type="line"/>
      <point x="175" y="690" type="line" smooth="yes"/>
      <point x="175" y="740"/>
      <point x="185" y="789"/>
      <point x="235" y="789" type="curve"/>
    </contour>
  </outline>
</glyph>
<glyph name="g.alt" format="1">
  <advance width="452"/>
  <outline>
    <component base="b.alt" xScale="-1" xOffset="426"/>
    <contour>
      <point x="392" y="409" type="line"/>
      <point x="327" y="409" type="line"/>
      <point x="327" y="-134" type="line" smooth="yes"/>
      <point x="327" y="-194"/>
      <point x="293" y="-245"/>
      <point x="233" y="-245" type="curve" smooth="yes"/>
      <point x="173" y="-245"/>
      <point x="143" y="-204"/>
      <point x="143" y="-144" type="curve" smooth="yes"/>
      <point x="143" y="-137" type="line"/>
      <point x="78" y="-137" type="line"/>
      <point x="78" y="-159" type="line" smooth="yes"/>
      <point x="78" y="-249"/>
      <point x="143" y="-305"/>
      <point x="233" y="-305" type="curve" smooth="yes"/>
      <point x="323" y="-305"/>
      <point x="392" y="-229"/>
      <point x="392" y="-139" type="curve" smooth="yes"/>
    </contour>
  </outline>
</glyph>
<glyph name="g.superior" format="1">
  <advance width="446"/>
  <outline>
    <contour>
      <point x="66" y="287" type="line"/>
      <point x="66" y="197"/>
      <point x="141" y="141"/>
      <point x="231" y="141" type="curve"/>
      <point x="321" y="141"/>
      <point x="396" y="197"/>
      <point x="396" y="287" type="curve" smooth="yes"/>
      <point x="396" y="705" type="line"/>
      <point x="331" y="705" type="line"/>
      <point x="331" y="302" type="line" smooth="yes"/>
      <point x="331" y="242"/>
      <point x="291" y="206"/>
      <point x="231" y="206" type="curve"/>
      <point x="171" y="206"/>
      <point x="131" y="227"/>
      <point x="131" y="287" type="curve"/>
    </contour>
    <component base="b.alt" xScale="-1.0" xOffset="427" yOffset="296"/>
  </outline>
</glyph>
<glyph name="grave.case" format="1">
  <advance width="208"/>
  <outline>
    <contour>
      <point x="90" y="740" type="line"/>
      <point x="151" y="740" type="line"/>
      <point x="108" y="865" type="line"/>
      <point x="47" y="865" type="line"/>
    </contour>
  </outline>
</glyph>
<glyph name="h.superior" format="1">
  <advance width="410"/>
  <outline>
    <contour>
      <point x="80" y="534" type="line"/>
      <point x="80" y="634"/>
      <point x="130" y="715"/>
      <point x="215" y="715" type="curve" smooth="yes"/>
      <point x="305" y="715"/>
      <point x="360" y="659"/>
      <point x="360" y="569" type="curve" smooth="yes"/>
      <point x="360" y="296" type="line"/>
      <point x="295" y="296" type="line"/>
      <point x="295" y="554" type="line" smooth="yes"/>
      <point x="295" y="614"/>
      <point x="270" y="655"/>
      <point x="210" y="655" type="curve" smooth="yes"/>
      <point x="150" y="655"/>
      <point x="115" y="594"/>
      <point x="115" y="534" type="curve"/>
    </contour>
    <component base="l.superior"/>
  </outline>
</glyph>
<glyph name="hungarumlaut.case" format="1">
  <advance width="305"/>
  <outline>
    <contour>
      <point x="222" y="740" type="line"/>
      <point x="161" y="740" type="line"/>
      <point x="204" y="865" type="line"/>
      <point x="265" y="865" type="line"/>
    </contour>
    <contour>
      <point x="101" y="740" type="line"/>
      <point x="40" y="740" type="line"/>
      <point x="83" y="865" type="line"/>
      <point x="144" y="865" type="line"/>
    </contour>
  </outline>
</glyph>
<glyph name="j.superior" format="1">
  <advance width="180"/>
  <outline>
    <contour>
      <point x="60" y="281" type="line" smooth="yes"/>
      <point x="60" y="241"/>
      <point x="40" y="211"/>
      <point x="0" y="211" type="curve"/>
      <point x="0" y="151" type="line"/>
      <point x="80" y="151"/>
      <point x="125" y="206"/>
      <point x="125" y="286" type="curve" smooth="yes"/>
      <point x="125" y="705" type="line"/>
      <point x="60" y="705" type="line"/>
    </contour>
    <contour>
      <point x="130" y="775" type="line"/>
      <point x="55" y="775" type="line"/>
      <point x="55" y="850" type="line"/>
      <point x="130" y="850" type="line"/>
    </contour>
  </outline>
</glyph>
<glyph name="k.superior" format="1">
  <advance width="397"/>
  <outline>
    <component base="l.superior"/>
    <contour>
      <point x="89" y="524" type="line"/>
      <point x="281" y="705" type="line"/>
      <point x="372" y="705" type="line"/>
      <point x="133" y="478" type="line"/>
      <point x="128" y="540" type="line"/>
      <point x="387" y="296" type="line"/>
      <point x="290" y="296" type="line"/>
      <point x="89" y="486" type="line"/>
    </contour>
  </outline>
</glyph>
<glyph name="q.superior" format="1">
  <advance width="455"/>
  <outline>
    <component base="b.alt" xScale="-1" xOffset="436" yOffset="296"/>
    <contour>
      <point x="402" y="705" type="line"/>
      <point x="337" y="705" type="line"/>
      <point x="337" y="161" type="line"/>
      <point x="402" y="161" type="line"/>
    </contour>
  </outline>
</glyph>
<glyph name="ring.case" format="1">
  <advance width="300"/>
  <outline>
    <contour>
      <point x="55" y="750" type="curve" smooth="yes"/>
      <point x="55" y="804"/>
      <point x="98" y="848"/>
      <point x="153" y="848" type="curve" smooth="yes"/>
      <point x="207" y="848"/>
      <point x="251" y="804"/>
      <point x="251" y="750" type="curve" smooth="yes"/>
      <point x="251" y="695"/>
      <point x="207" y="652"/>
      <point x="153" y="652" type="curve" smooth="yes"/>
      <point x="98" y="652"/>
      <point x="55" y="695"/>
    </contour>
    <contour>
      <point x="103" y="750" type="curve" smooth="yes"/>
      <point x="103" y="722"/>
      <point x="125" y="698"/>
      <point x="153" y="698" type="curve" smooth="yes"/>
      <point x="180" y="698"/>
      <point x="203" y="722"/>
      <point x="203" y="750" type="curve" smooth="yes"/>
      <point x="203" y="777"/>
      <point x="180" y="802"/>
      <point x="153" y="802" type="curve" smooth="yes"/>
      <point x="125" y="802"/>
      <point x="103" y="777"/>
    </contour>
  </outline>
</glyph>
<glyph name="t.superior" format="1">
  <advance width="370"/>
  <outline>
    <contour>
      <point x="275" y="640" type="line"/>
      <point x="30" y="640" type="line"/>
      <point x="30" y="705" type="line"/>
      <point x="275" y="705" type="line"/>
    </contour>
    <contour>
      <point x="340" y="437" type="line"/>
      <point x="340" y="422" type="line" smooth="yes"/>
      <point x="340" y="352"/>
      <point x="295" y="286"/>
      <point x="225" y="286" type="curve" smooth="yes"/>
      <point x="150" y="286"/>
      <point x="110" y="347"/>
      <point x="110" y="422" type="curve" smooth="yes"/>
      <point x="110" y="845" type="line"/>
      <point x="175" y="845" type="line"/>
      <point x="175" y="437" type="line" smooth="yes"/>
      <point x="175" y="387"/>
      <point x="185" y="351"/>
      <point x="225" y="351" type="curve" smooth="yes"/>
      <point x="265" y="351"/>
      <point x="275" y="387"/>
      <point x="275" y="437" type="curve"/>
    </contour>
  </outline>
</glyph>
<glyph name="tilde.case" format="1">
  <advance width="300"/>
  <outline>
    <contour>
      <point x="203" y="805" type="curve" smooth="yes"/>
      <point x="171" y="805"/>
      <point x="141" y="840"/>
      <point x="97" y="840" type="curve" smooth="yes"/>
      <point x="63" y="840"/>
      <point x="33" y="818"/>
      <point x="13" y="794" type="curve"/>
      <point x="52" y="756" type="line"/>
      <point x="63" y="772"/>
      <point x="79" y="782"/>
      <point x="98" y="782" type="curve" smooth="yes"/>
      <point x="129" y="782"/>
      <point x="159" y="747"/>
      <point x="203" y="747" type="curve" smooth="yes"/>
      <point x="238" y="747"/>
      <point x="267" y="768"/>
      <point x="288" y="793" type="curve"/>
      <point x="249" y="831" type="line"/>
      <point x="238" y="815"/>
      <point x="222" y="805"/>
    </contour>
  </outline>
</glyph>
<glyph name="w_w_w" format="1">
  <advance width="1761"/>
  <outline>
    <contour>
      <point x="1004" y="40" type="line"/>
      <point x="1032" y="40" type="line"/>
      <point x="914" y="409" type="line"/>
      <point x="847" y="409" type="line"/>
      <point x="729" y="40" type="line"/>
      <point x="757" y="40" type="line"/>
      <point x="641" y="409" type="line"/>
      <point x="570" y="409" type="line"/>
      <point x="454" y="40" type="line"/>
      <point x="482" y="40" type="line"/>
      <point x="364" y="409" type="line"/>
      <point x="297" y="409" type="line"/>
      <point x="179" y="40" type="line"/>
      <point x="207" y="40" type="line"/>
      <point x="91" y="409" type="line"/>
      <point x="20" y="409" type="line"/>
      <point x="160" y="0" type="line"/>
      <point x="226" y="0" type="line"/>
      <point x="335" y="341" type="line"/>
      <point x="326" y="341" type="line"/>
      <point x="435" y="0" type="line"/>
      <point x="501" y="0" type="line"/>
      <point x="610" y="337" type="line"/>
      <point x="602" y="337" type="line"/>
      <point x="710" y="0" type="line"/>
      <point x="776" y="0" type="line"/>
      <point x="885" y="341" type="line"/>
      <point x="876" y="341" type="line"/>
      <point x="985" y="0" type="line"/>
      <point x="1051" y="0" type="line"/>
      <point x="1160" y="337" type="line"/>
      <point x="1152" y="337" type="line"/>
      <point x="1260" y="0" type="line"/>
      <point x="1326" y="0" type="line"/>
      <point x="1435" y="341" type="line"/>
      <point x="1426" y="341" type="line"/>
      <point x="1535" y="0" type="line"/>
      <point x="1601" y="0" type="line"/>
      <point x="1741" y="409" type="line"/>
      <point x="1670" y="409" type="line"/>
      <point x="1554" y="40" type="line"/>
      <point x="1582" y="40" type="line"/>
      <point x="1464" y="409" type="line"/>
      <point x="1397" y="409" type="line"/>
      <point x="1279" y="40" type="line"/>
      <point x="1307" y="40" type="line"/>
      <point x="1191" y="409" type="line"/>
      <point x="1120" y="409" type="line"/>
    </contour>
  </outline>
</glyph>
<glyph name="y.alt" format="1">
  <advance width="370"/>
  <outline>
    <component base="v" xOffset="-6"/>
    <contour>
      <point x="54" y="-295" type="line"/>
      <point x="120" y="-295" type="line"/>
      <point x="360" y="409" type="line"/>
      <point x="289" y="409" type="line"/>
    </contour>
  </outline>
</glyph>
<glyph name="y.superior" format="1">
  <advance width="370"/>
  <outline>
    <contour>
      <point x="224" y="307" type="line"/>
      <point x="360" y="705" type="line"/>
      <point x="289" y="705" type="line"/>
      <point x="165" y="317" type="line"/>
    </contour>
    <contour>
      <point x="206" y="336" type="line"/>
      <point x="77" y="705" type="line"/>
      <point x="4" y="705" type="line"/>
      <point x="167" y="264" type="line"/>
    </contour>
    <contour>
      <point x="231" y="396" type="line"/>
      <point x="166" y="396" type="line"/>
      <point x="166" y="372" type="line" smooth="yes"/>
      <point x="166" y="322"/>
      <point x="156" y="273"/>
      <point x="106" y="273" type="curve"/>
      <point x="106" y="211" type="line"/>
      <point x="186" y="211"/>
      <point x="231" y="277"/>
      <point x="231" y="357" type="curve" smooth="yes"/>
    </contour>
  </outline>
</glyph>
